<?xml version="1.0" encoding="UTF-8"?><svg id="Layer_1" xmlns="http://www.w3.org/2000/svg" viewBox="0 0 64 64"><g id="Chatting"><rect x="10" width="44" height="64" rx="9" ry="9" style="fill:#d9ecff; stroke-width:0px;"/><rect x="15" y="8" width="34" height="51" rx="5" ry="5" style="fill:#b9d8f9; stroke-width:0px;"/><path d="m38,5h-8c-.55273438,0-1-.44726562-1-1s.44726562-1,1-1h8c.55273438,0,1,.44726562,1,1s-.44726562,1-1,1Z" style="fill:#b9d8f9; stroke-width:0px;"/><circle cx="26" cy="4" r="1" style="fill:#b9d8f9; stroke-width:0px;"/><path d="m55,32h-20c-1.65429688,0-3,1.34570312-3,3v12c0,1.65429688,1.34570312,3,3,3h1.46484375l1.703125,2.5546875c.18554688.27832031.49804688.4453125.83203125.4453125s.64648438-.16699219.83203125-.4453125l1.703125-2.5546875h13.46484375c1.65429688,0,3-1.34570312,3-3v-12c0-1.65429688-1.34570312-3-3-3Z" style="fill:#ffe094; stroke-width:0px;"/><circle cx="54" cy="28" r="8" style="fill:#64c4ff; stroke-width:0px;"/><path d="m54,36c2.27600098,0,4.32806396-.96020508,5.78625488-2.49108887-.1217041-.4744873-.29107666-.93859863-.53137207-1.37902832-1.05273438-1.93066406-3.06640625-3.12988281-5.25488281-3.12988281-2.10449219,0-4.015625,1.07910156-5.11425781,2.88574219-.3114624.51275635-.53259277,1.05615234-.67907715,1.61529541,1.45855713,1.53533936,3.51348877,2.4989624,5.79333496,2.4989624Z" style="fill:#93d5f9; stroke-width:0px;"/><circle cx="54" cy="28" r="4" style="fill:#bdefff; stroke-width:0px;"/><path d="m29,16H9c-1.65429688,0-3,1.34570312-3,3v8c0,1.65429688,1.34570312,3,3,3h13.46484375l1.703125,2.5546875c.18554688.27832031.49804688.4453125.83203125.4453125s.64648438-.16699219.83203125-.4453125l1.703125-2.5546875h1.46484375c1.65429688,0,3-1.34570312,3-3v-8c0-1.65429688-1.34570312-3-3-3Z" style="fill:#ffe094; stroke-width:0px;"/><circle cx="10" cy="12" r="8" style="fill:#64c4ff; stroke-width:0px;"/><path d="m10,20c2.27600098,0,4.32806396-.96020508,5.78625488-2.49108887-.1217041-.4744873-.29107666-.93859863-.53137207-1.37902832-1.05273438-1.93066406-3.06640625-3.12988281-5.25488281-3.12988281-2.10449219,0-4.015625,1.07910156-5.11425781,2.88574219-.3114624.51275635-.53259277,1.05615234-.67907715,1.61529541,1.45855713,1.53533936,3.51348877,2.4989624,5.79333496,2.4989624Z" style="fill:#93d5f9; stroke-width:0px;"/><circle cx="10" cy="12" r="4" style="fill:#bdefff; stroke-width:0px;"/><circle cx="39" cy="41" r="1" style="fill:#ffb666; stroke-width:0px;"/><circle cx="45" cy="41" r="1" style="fill:#ffb666; stroke-width:0px;"/><circle cx="51" cy="41" r="1" style="fill:#ffb666; stroke-width:0px;"/><circle cx="25" cy="23" r="1" style="fill:#ffb666; stroke-width:0px;"/><circle cx="19" cy="23" r="1" style="fill:#ffb666; stroke-width:0px;"/><circle cx="13" cy="23" r="1" style="fill:#ffb666; stroke-width:0px;"/></g></svg>