<?xml version="1.0" encoding="UTF-8"?><svg id="Layer_1" xmlns="http://www.w3.org/2000/svg" viewBox="0 0 64 64"><g id="Send_Message"><rect x="9" y="8" width="48" height="38" rx="5" ry="5" style="fill:#ffe094; stroke-width:0px;"/><path d="m57,15.15344238l-17.19134521,11.21179199c-.00195312.00115967-.00372314.00250244-.00567627.00366211l-6.80297852,4.43676758-6.80493164-4.43792725c-.00091553-.00054932-.00170898-.0012207-.00268555-.00177002L9,15.15380859v2.38842773l14.94543457,9.74688721-14.94543457,11.21142578v2.49945068c0,.00018311.00006104.00030518.00006104.00048828l16.72808838-12.54870605,6.72546387,4.3861084c.16601562.10839844.35644531.16210938.54638672.16210938.19042969,0,.37988281-.05371094.54589844-.16210938l6.72564697-4.38635254,16.72845459,12.54852295v-2.49920654l-14.94628906-11.21166992,14.94628906-9.74780273v-2.38793945Z" style="fill:#ffcd7d; stroke-width:0px;"/><circle cx="52" cy="44" r="12" style="fill:#64c4ff; stroke-width:0px;"/><path d="m59.47851562,43.12207031l-11-6c-.35839844-.19726562-.8046875-.15332031-1.12011719.11132812-.31542969.26367188-.4375.69335938-.30664062,1.08300781l1.89453125,5.68359375-1.89453125,5.68359375c-.13085938.38964844-.00878906.81933594.30664062,1.08300781.18359375.15429688.41210938.23339844.64160156.23339844.1640625,0,.32910156-.04003906.47851562-.12207031l11-6c.32128906-.17480469.52148438-.51171875.52148438-.87792969s-.20019531-.703125-.52148438-.87792969Z" style="fill:#45a9f4; stroke-width:0px;"/><path d="m52,43h-3.38702393l.33331299,1-.33331299,1h3.38702393c.55273438,0,1-.44726562,1-1s-.44726562-1-1-1Z" style="fill:#268edb; stroke-width:0px;"/><path d="m13,27H3c-.55224609,0-1-.44726562-1-1s.44775391-1,1-1h10c.55224609,0,1,.44726562,1,1s-.44775391,1-1,1Z" style="fill:#64c4ff; stroke-width:0px;"/><path d="m5,35H1c-.55224609,0-1-.44726562-1-1s.44775391-1,1-1h4c.55224609,0,1,.44726562,1,1s-.44775391,1-1,1Z" style="fill:#64c4ff; stroke-width:0px;"/><path d="m6,31H2c-.55224609,0-1-.44726562-1-1s.44775391-1,1-1h4c.55224609,0,1,.44726562,1,1s-.44775391,1-1,1Z" style="fill:#64c4ff; stroke-width:0px;"/></g></svg>