<?xml version="1.0" encoding="UTF-8"?><svg id="Layer_1" xmlns="http://www.w3.org/2000/svg" viewBox="0 0 64 64"><g id="Talk"><path d="m58,34h-8c-3.30859375,0-6,2.69140625-6,6v23c0,.55273438.44726562,1,1,1h18c.55273438,0,1-.44726562,1-1v-23c0-3.30859375-2.69140625-6-6-6Z" style="fill:#64c4ff; stroke-width:0px;"/><circle cx="54" cy="26" r="10" style="fill:#45a9f4; stroke-width:0px;"/><path d="m53.57287598,39.20397949l-6.98999023,1.06787109-7.25201416-5.32989502c-1.33508301-.98126221-3.21276855-.69439697-4.19396973.64068604h-.00006104c-.98120117,1.33508301-.69433594,3.21276855.64074707,4.19396973l9.66937256,7.10656738,9.78594971-1.49499512-1.66003418-6.1842041Z" style="fill:#64c4ff; stroke-width:0px;"/><path d="m50,26c-.55273438,0-1-.44726562-1-1v-1c0-.55273438.44726562-1,1-1s1,.44726562,1,1v1c0,.55273438-.44726562,1-1,1Z" style="fill:#268edb; stroke-width:0px;"/><path d="m14,34H6c-3.30859375,0-6,2.69140625-6,6v23c0,.55273438.44726562,1,1,1h18c.55273438,0,1-.44726562,1-1v-23c0-3.30859375-2.69140625-6-6-6Z" style="fill:#64c4ff; stroke-width:0px;"/><path d="m13.5859375,52c-.25585938,0-.51171875-.09765625-.70703125-.29296875l-7.29296875-7.29296875c-.390625-.390625-.390625-1.0234375,0-1.4140625s1.0234375-.390625,1.4140625,0l7.29296875,7.29296875c.390625.390625.390625,1.0234375,0,1.4140625-.1953125.1953125-.45117188.29296875-.70703125.29296875Z" style="fill:#45a9f4; stroke-width:0px;"/><circle cx="10" cy="26" r="10" style="fill:#45a9f4; stroke-width:0px;"/><path d="m26,44h-9l-5-5-5,4,7,7h12c1.65686035,0,3-1.34313965,3-3s-1.34313965-3-3-3Z" style="fill:#64c4ff; stroke-width:0px;"/><path d="m49,55H15c-.55228475,0-1,.44771525-1,1v8h36v-8c0-.55228475-.44771525-1-1-1Z" style="fill:#ffcd7d; stroke-width:0px;"/><path d="m14,26c-.55273438,0-1-.44726562-1-1v-1c0-.55273438.44726562-1,1-1s1,.44726562,1,1v1c0,.55273438-.44726562,1-1,1Z" style="fill:#268edb; stroke-width:0px;"/><path d="m43,0h-22c-1.65429688,0-3,1.34570312-3,3v12c0,1.65429688,1.34570312,3,3,3h1v3c0,.38476562.22070312.734375.56640625.90136719.34765625.16699219.7578125.12109375,1.05859375-.12011719l4.72558594-3.78125h7.29882812l4.72558594,3.78125c.18066406.14453125.40234375.21875.625.21875.14746094,0,.29589844-.03222656.43359375-.09863281.34570312-.16699219.56640625-.51660156.56640625-.90136719v-3h1c1.65429688,0,3-1.34570312,3-3V3c0-1.65429688-1.34570312-3-3-3Z" style="fill:#ffe094; stroke-width:0px;"/><circle cx="26" cy="9" r="1" style="fill:#ffb666; stroke-width:0px;"/><circle cx="32" cy="9" r="1" style="fill:#ffb666; stroke-width:0px;"/><circle cx="38" cy="9" r="1" style="fill:#ffb666; stroke-width:0px;"/><path d="m20,42h-2.171875l-4.4140625-4.4140625c-.390625-.390625-1.0234375-.390625-1.4140625,0s-.390625,1.0234375,0,1.4140625l4.70703125,4.70703125c.1875.1875.44140625.29296875.70703125.29296875h2.5859375v-2Z" style="fill:#45a9f4; stroke-width:0px;"/><rect x="11" y="50" width="42" height="7" rx="1" ry="1" style="fill:#ffe094; stroke-width:0px;"/><path d="m56.36999512,46.22998047c.09002686.53997803-.28997803,1.04998779-.83001709,1.14001465l-10.19995117,1.54998779c-.05004883.01000977-.10003662.01000977-.15002441.01000977-.21002197,0-.41998291-.05999756-.59002686-.19000244l-.59997559-.44000244v-2.47998047l1.45001221,1.05999756,9.77996826-1.48999023c.55999756-.09002686,1.05999756.28997803,1.14001465.83996582Z" style="fill:#45a9f4; stroke-width:0px;"/><path d="m45.03082275,36.64117432c-.38299561.5647583-.66564941,1.20050049-.83874512,1.87963867l2.05792236,1.50915527c.16998291.11999512.38000488.19000244.59002686.19000244.04998779,0,.09997559,0,.14996338-.01000977l6.58001709-1.00994873c.54998779-.08001709.91998291-.59002686.83996582-1.14001465-.07995605-.54003906-.57995605-.91998291-1.13995361-.83001709l-6.17004395.94000244-2.06915283-1.52880859Z" style="fill:#45a9f4; stroke-width:0px;"/></g></svg>