<?xml version="1.0" encoding="UTF-8"?><svg id="Layer_1" xmlns="http://www.w3.org/2000/svg" viewBox="0 0 64 64"><g id="Customer_Service"><path d="m40,33v1h-2v-1c0-.54998779.45001221-1,1-1s1,.45001221,1,1Z" style="fill:#45a9f4; stroke-width:0px;"/><path d="m37,25c-.55224609,0-1-.44726562-1-1v-10c0-6.6171875-5.38330078-12-12-12s-12,5.3828125-12,12v10c0,.55273438-.44775391,1-1,1s-1-.44726562-1-1v-10C10,6.28027344,16.28027344,0,24,0s14,6.28027344,14,14v10c0,.55273438-.44775391,1-1,1Z" style="fill:#45a9f4; stroke-width:0px;"/><path d="m8,24c-1.10302734,0-2,.89746094-2,2v6c0,1.10253906.89697266,2,2,2h8l-3-10h-5Z" style="fill:#64c4ff; stroke-width:0px;"/><path d="m40,24h-5l-2,10h7c1.10302734,0,2-.89746094,2-2v-6c0-1.10253906-.89697266-2-2-2Z" style="fill:#64c4ff; stroke-width:0px;"/><path d="m42.42675781,45.03515625l-12.04589844-4.95996094c-.12109375-.04980469-.25-.07519531-.38085938-.07519531h-12c-.13085938,0-.25976562.02539062-.38085938.07519531l-12.04589844,4.95996094c-3.38574543,1.39453125-5.57324219,4.66113281-5.57324219,8.32226562v9.64257812c0,.55273438.44775391,1,1,1h46c.55224609,0,1-.44726562,1-1v-9.64257812c0-3.66113281-2.18750434-6.92773438-5.57324219-8.32226562Z" style="fill:#d9ecff; stroke-width:0px;"/><path d="m29,40h-10c-.55224609,0-1,.44726562-1,1v3c0,3.30859375,2.69140625,6,6,6s6-2.69140625,6-6v-3c0-.55273438-.44775391-1-1-1Z" style="fill:#f9c7c0; stroke-width:0px;"/><polygon points="28.25134277 64 26 55 27 55 29 50 24 49 19 50 21 55 22 55 19.75146484 64 28.25134277 64" style="fill:#45a9f4; stroke-width:0px;"/><polygon points="29 50 27 55 21 55 19 50 24 49 29 50" style="fill:#64c4ff; stroke-width:0px;"/><polygon points="30.17971851 39.1124096 24.000005 49 32 52.99998133 30.72950269 39.02463211 30.17971851 39.1124096" style="fill:#b9d8f9; stroke-width:0px;"/><polygon points="17.82028149 39.1124096 23.999995 49 16 52.99998133 17.27049731 39.0246321 17.82028149 39.1124096" style="fill:#b9d8f9; stroke-width:0px;"/><path d="m60,0h-14c-2.20556641,0-4,1.79394531-4,4v12c0,2.20605469,1.79443359,4,4,4v3c0,.38476562.22021484.734375.56689453.90136719.13769531.06640625.28564453.09863281.43310547.09863281.22265625,0,.44384766-.07421875.62451172-.21875l4.72607422-3.78125h7.64941406c2.20556641,0,4-1.79394531,4-4V4c0-2.20605469-1.79443359-4-4-4Z" style="fill:#ffe094; stroke-width:0px;"/><path d="m51,4c-.55224609,0-1,.44726562-1,1v2h-2v-2c0-.55273438-.44775391-1-1-1s-1,.44726562-1,1v6c0,.55273438.44775391,1,1,1s1-.44726562,1-1v-2h2v2c0,.55273438.44775391,1,1,1s1-.44726562,1-1v-6c0-.55273438-.44775391-1-1-1Z" style="fill:#ffb666; stroke-width:0px;"/><path d="m55,12c-.55224609,0-1-.44726562-1-1v-3c0-.55273438.44775391-1,1-1s1,.44726562,1,1v3c0,.55273438-.44775391,1-1,1Z" style="fill:#ffb666; stroke-width:0px;"/><circle cx="55" cy="5" r="1" style="fill:#ffb666; stroke-width:0px;"/><path d="m59,16h-12c-.55224609,0-1-.44726562-1-1s.44775391-1,1-1h12c.55224609,0,1,.44726562,1,1s-.44775391,1-1,1Z" style="fill:#ffb666; stroke-width:0px;"/><path d="m13,19v13c0,6.06542969,4.93457031,11,11,11s11-4.93457031,11-11v-13H13Z" style="fill:#ffded4; stroke-width:0px;"/><path d="m40,34v5c0,.54998779-.45001221,1-1,1h-9c-.54998779,0-1-.45001221-1-1s.45001221-1,1-1h8v-4h2Z" style="fill:#45a9f4; stroke-width:0px;"/><path d="m32.83105469,24c-3.09570312,0-6.10546875-1.45019531-8.05078125-3.87792969l-.78027344-.97460938-.78027344.97460938c-1.9453125,2.42773438-4.95507812,3.87792969-8.05078125,3.87792969h-5.16894531v-3c0-7.71972656,6.28027344-14,14-14s14,6.28027344,14,14v3h-5.16894531Z" style="fill:#5b6675; stroke-width:0px;"/><path d="m28,32h-8c-.55224609,0-1,.44726562-1,1v2c0,2.75683594,2.24316406,5,5,5s5-2.24316406,5-5v-2c0-.55273438-.44775391-1-1-1Z" style="fill:#f9c7c0; stroke-width:0px;"/></g></svg>