<?xml version="1.0" encoding="UTF-8"?><svg id="Layer_1" xmlns="http://www.w3.org/2000/svg" viewBox="0 0 64 64"><g id="Chatting"><path d="m47,13c0-1.65002441-1.34997559-3-3-3h-24c-.79998779,0-1.53997803.32000732-2.08001709.83996582v.01000977c.04998779.36999512.08001709.76000977.08001709,1.15002441,0,1.39996338-.35998535,2.70996094-1,3.85998535v.14001465h12c1.65002441,0,3,1.34997559,3,3v8c0,1.64996338-1.34997559,3-3,3h-1.46002197l-1.70996094,2.54998779c-.17999268.27996826-.5.45001221-.83001709.45001221s-.65002441-.17004395-.83001709-.45001221l-1.70996094-2.54998779h-5.46002197v24c0,1.64996338,1.34997559,3,3,3h24c1.65002441,0,3-1.35003662,3-3v-4h-5.46002197l-1.70996094,2.54998779c-.17999268.27996826-.5.45001221-.83001709.45001221s-.65002441-.17004395-.83001709-.45001221l-1.70996094-2.54998779h-1.46002197c-1.65002441,0-3-1.35003662-3-3v-12c0-1.65002441,1.34997559-3,3-3h12v-.14001465c-.64001465-1.15002441-1-2.46002197-1-3.85998535,0-1.40002441.35998535-2.71002197,1-3.85998535v-11.14001465Z" style="stroke-width:0px;"/><path d="m17.32000732,8.77996826c.77001953-.48999023,1.69000244-.77996826,2.67999268-.77996826h24c2.76000977,0,5,2.23999023,5,5v8.7699585c1.36999512-1.10998535,3.10998535-1.7699585,5-1.7699585v-11c0-4.96002197-4.03997803-9-9-9h-26c-3.16998291,0-5.96002197,1.64996338-7.55999756,4.13000488,2.64001465.47998047,4.83001709,2.26000977,5.88000488,4.64996338Zm12.67999268-5.77996826h8c.54998779,0,1,.45001221,1,1s-.45001221,1-1,1h-8c-.54998779,0-1-.45001221-1-1s.45001221-1,1-1Zm-4,0c.54998779,0,1,.45001221,1,1s-.45001221,1-1,1-1-.45001221-1-1,.45001221-1,1-1Z" style="stroke-width:0px;"/><path d="m49,54c0,2.76000977-2.23999023,5-5,5h-24c-2.76000977,0-5-2.23999023-5-5v-24h-5v25c0,4.95996094,4.03997803,9,9,9h26c4.96002197,0,9-4.04003906,9-9v-5h-5v4Z" style="stroke-width:0px;"/><path d="m7,12c0-1.65429688,1.34570312-3,3-3s3,1.34570312,3,3c0,.5769043-.17150879,1.11126709-.45483398,1.56915283.9206543.4317627,1.71069336,1.1005249,2.30957031,1.94366455.71716309-.98858643,1.14526367-2.20001221,1.14526367-3.51281738,0-3.30999756-2.69000244-6-6-6s-6,2.69000244-6,6c0,1.31274414.42797852,2.52410889,1.14508057,3.51263428.59887695-.84295654,1.38903809-1.51171875,2.30975342-1.94348145-.2833252-.45788574-.45483398-.99224854-.45483398-1.56915283Z" style="stroke-width:0px;"/><path d="m13.40643311,16.93438721c-.71429443-1.1918335-1.98413086-1.93438721-3.40643311-1.93438721-1.42126465,0-2.69140625.74298096-3.40594482,1.93469238.96832275.67022705,2.14099121,1.06530762,3.40594482,1.06530762,1.26513672,0,2.43804932-.39520264,3.40643311-1.06561279Z" style="stroke-width:0px;"/><circle cx="10" cy="12" r="1" style="stroke-width:0px;"/><path d="m48.7199707,34h-13.7199707c-.54998779,0-1,.45001221-1,1v12c0,.54998779.45001221,1,1,1h2c.33001709,0,.65002441.16998291.83001709.45001221l1.16998291,1.75,1.16998291-1.75c.17999268-.2800293.5-.45001221.83001709-.45001221h14c.54998779,0,1-.45001221,1-1v-11.25c-.64001465.15997314-1.30999756.25-2,.25-2.02001953,0-3.86999512-.76000977-5.2800293-2Zm-9.7199707,8c-.55230713,0-1-.44775391-1-1,0-.55230713.44769287-1,1-1s1,.44769287,1,1c0,.55224609-.44769287,1-1,1Zm6,0c-.55230713,0-1-.44775391-1-1,0-.55230713.44769287-1,1-1s1,.44769287,1,1c0,.55224609-.44769287,1-1,1Zm6,0c-.55230713,0-1-.44775391-1-1,0-.55230713.44769287-1,1-1s1,.44769287,1,1c0,.55224609-.44769287,1-1,1Z" style="stroke-width:0px;"/><path d="m23.83001709,28.45001221l1.16998291,1.75,1.16998291-1.75c.17999268-.2800293.5-.45001221.83001709-.45001221h2c.54998779,0,1-.45001221,1-1v-8c0-.54998779-.45001221-1-1-1h-13.7199707c-1.41003418,1.23999023-3.26000977,2-5.2800293,2-.69000244,0-1.35998535-.09002686-2-.25v7.25c0,.54998779.45001221,1,1,1h14c.33001709,0,.65002441.16998291.83001709.45001221Zm1.16998291-6.45001221c.55230713,0,1,.44769287,1,1,0,.55224609-.44769287,1-1,1s-1-.44775391-1-1c0-.55230713.44769287-1,1-1Zm-12,2c-.55230713,0-1-.44775391-1-1,0-.55230713.44769287-1,1-1s1,.44769287,1,1c0,.55224609-.44769287,1-1,1Zm6,0c-.55230713,0-1-.44775391-1-1,0-.55230713.44769287-1,1-1s1,.44769287,1,1c0,.55224609-.44769287,1-1,1Z" style="stroke-width:0px;"/><path d="m54,22c-3.30999756,0-6,2.69000244-6,6,0,1.31274414.42797852,2.52410889,1.14508057,3.51263428.59887695-.84295654,1.38903809-1.51171875,2.30975342-1.94348145-.2833252-.45788574-.45483398-.99224854-.45483398-1.56915283,0-1.65429688,1.34570312-3,3-3s3,1.34570312,3,3c0,.5769043-.17150879,1.11126709-.45483398,1.56915283.9206543.4317627,1.71069336,1.1005249,2.30957031,1.94366455.71716309-.98858643,1.14526367-2.20001221,1.14526367-3.51281738,0-3.30999756-2.69000244-6-6-6Z" style="stroke-width:0px;"/><path d="m54,31c-1.42126465,0-2.69140625.74298096-3.40594482,1.93469238.96832275.67022705,2.14099121,1.06530762,3.40594482,1.06530762,1.26513672,0,2.43804932-.39520264,3.40643311-1.06561279-.71429443-1.1918335-1.98413086-1.93438721-3.40643311-1.93438721Z" style="stroke-width:0px;"/><circle cx="54" cy="28" r="1" style="stroke-width:0px;"/></g></svg>