<?xml version="1.0" encoding="UTF-8"?><svg id="Layer_1" xmlns="http://www.w3.org/2000/svg" viewBox="0 0 64 64"><g id="User"><path d="m32,17c-4.41113281,0-8,3.58886719-8,8,0,1.66790771.5144043,3.21716309,1.39105225,4.50036621.69226074-1.01464844,1.60443115-1.85522461,2.66894531-2.45861816-.65447998-.84545898-1.05999756-1.89239502-1.05999756-3.04174805,0-2.75683594,2.24316406-5,5-5s5,2.24316406,5,5c0,1.14935303-.40551758,2.19628906-1.05999756,3.04174805,1.06451416.60339355,1.97668457,1.44396973,2.66894531,2.45861816.87664795-1.28320312,1.39105225-2.8324585,1.39105225-4.50036621,0-4.41113281-3.58886719-8-8-8Z" style="stroke-width:0px;"/><circle cx="32" cy="24" r="3" style="stroke-width:0px;"/><path d="m34.24530029,28.44287109c-.67828369.34448242-1.43395996.55712891-2.24530029.55712891s-1.5670166-.21264648-2.24530029-.55712891c-1.25646973.50720215-2.30645752,1.42260742-2.97753906,2.60339355,1.40307617,1.21374512,3.22650146,1.95373535,5.22283936,1.95373535s3.81976318-.73999023,5.22283936-1.95373535c-.67108154-1.18078613-1.72106934-2.09619141-2.97753906-2.60339355Z" style="stroke-width:0px;"/><path d="m39,40h-14c-.55175781,0-1,.44824219-1,1v4c0,.55175781.44824219,1,1,1h14c.55175781,0,1-.44824219,1-1v-4c0-.55175781-.44824219-1-1-1Zm-11,4c-.55230713,0-1-.44775391-1-1,0-.55230713.44769287-1,1-1s1,.44769287,1,1c0,.55224609-.44769287,1-1,1Zm4,0c-.55230713,0-1-.44775391-1-1,0-.55230713.44769287-1,1-1s1,.44769287,1,1c0,.55224609-.44769287,1-1,1Zm4,0c-.55230713,0-1-.44775391-1-1,0-.55230713.44769287-1,1-1s1,.44769287,1,1c0,.55224609-.44769287,1-1,1Z" style="stroke-width:0px;"/><path d="m45,0h-26c-4.96289062,0-9,4.03710938-9,9v46c0,4.96289062,4.03710938,9,9,9h26c4.96289062,0,9-4.03710938,9-9V9c0-4.96289062-4.03710938-9-9-9Zm-15,3h8c.55273438,0,1,.44726562,1,1s-.44726562,1-1,1h-8c-.55273438,0-1-.44726562-1-1s.44726562-1,1-1Zm-4,0c.55230713,0,1,.44769287,1,1,0,.55224609-.44769287,1-1,1s-1-.44775391-1-1c0-.55230713.44769287-1,1-1Zm23,51c0,2.75683594-2.24316406,5-5,5h-24c-2.75683594,0-5-2.24316406-5-5V13c0-2.75683594,2.24316406-5,5-5h24c2.75683594,0,5,2.24316406,5,5v41Z" style="stroke-width:0px;"/><path d="m44,10h-24c-1.65429688,0-3,1.34570312-3,3v41c0,1.65429688,1.34570312,3,3,3h24c1.65429688,0,3-1.34570312,3-3V13c0-1.65429688-1.34570312-3-3-3Zm-7,44h-10c-.55273438,0-1-.44726562-1-1s.44726562-1,1-1h10c.55273438,0,1,.44726562,1,1s-.44726562,1-1,1Zm5-9c0,1.65429688-1.34570312,3-3,3h-14c-1.65429688,0-3-1.34570312-3-3v-4c0-1.65429688,1.34570312-3,3-3h14c1.65429688,0,3,1.34570312,3,3v4Zm-2.80944824-13.06762695c-.01446533.01617432-.02746582.03204346-.04296875.04730225-1.8170166,1.86035156-4.3480835,3.02032471-7.14758301,3.02032471-2.79956055,0-5.33062744-1.16003418-7.14770508-3.02044678-.01544189-.01513672-.02832031-.03088379-.04266357-.04693604-1.7355957-1.79949951-2.80963135-4.24127197-2.80963135-6.93261719,0-5.51367188,4.48632812-10,10-10s10,4.48632812,10,10c0,2.69122314-1.07397461,5.13287354-2.80944824,6.93237305Z" style="stroke-width:0px;"/></g></svg>