<?xml version="1.0" encoding="UTF-8"?><svg id="Layer_1" xmlns="http://www.w3.org/2000/svg" viewBox="0 0 64 64"><g id="Send_Message"><path d="m26.19476318,26.36749268l6.80523682,4.43817139,6.80175781-4.43566895c.00274658-.00158691.00512695-.00354004.00787354-.00512695l17.19036865-11.21038818v-2.15447998c0-2.75683594-2.24316406-5-5-5H14c-2.75683594,0-5,2.24316406-5,5v2.15356445l17.19256592,11.21252441c.00079346.00042725.00140381.00097656.00219727.00140381Z" style="stroke-width:0px;"/><path d="m53,32c1.39001465,0,2.73999023.2199707,4,.64001465v-15.10003662l-14.95001221,9.75,7.07000732,5.29998779c1.22998047-.38000488,2.5300293-.58996582,3.88000488-.58996582Z" style="stroke-width:0px;"/><path d="m46.97998047,33.47998047l-6.70996094-5.02996826-6.72003174,4.38995361c-.16998291.11004639-.35998535.16003418-.54998779.16003418s-.38000488-.04998779-.54998779-.16003418l-6.72003174-4.38995361-16.72998047,12.54998779c0,2.76000977,2.23999023,5,5,5h26.04998779c-.03997803-.33001709-.04998779-.66003418-.04998779-1,0-5,2.83001709-9.34002686,6.97998047-11.52001953Z" style="stroke-width:0px;"/><path d="m51.72039795,44h1.27960205c.55273438,0,1,.44726562,1,1s-.44726562,1-1,1h-1.27960205l-.96844482,2.90527344,7.16015625-3.90527344-7.16015625-3.90527344.96844482,2.90527344Z" style="stroke-width:0px;"/><path d="m53,34c-6.06573486,0-11,4.9342041-11,11,0,6.06573486,4.93426514,11,11,11s11-4.93426514,11-11c0-6.0657959-4.93426514-11-11-11Zm7.47851562,11.87792969l-11,6c-.14941406.08203125-.31445312.12207031-.47851562.12207031-.22949219,0-.45800781-.07910156-.64160156-.23339844-.31542969-.26367188-.4375-.69335938-.30664062-1.08300781l1.89453125-5.68359375-1.89453125-5.68359375c-.13085938-.38964844-.00878906-.81933594.30664062-1.08300781.31542969-.26464844.76171875-.30761719,1.12011719-.11132812l11,6c.32128906.17480469.52148438.51171875.52148438.87792969s-.20019531.703125-.52148438.87792969Z" style="stroke-width:0px;"/><path d="m3,27h10c.54998779,0,1,.45001221,1,1s-.45001221,1-1,1h-4v9.5l14.95001221-11.21002197-14.95001221-9.75v7.46002197H3c-.54998779,0-1,.45001221-1,1s.45001221,1,1,1Z" style="stroke-width:0px;"/><path d="m5,33H1c-.55224609,0-1,.44726562-1,1s.44775391,1,1,1h4c.55224609,0,1-.44726562,1-1s-.44775391-1-1-1Z" style="stroke-width:0px;"/><path d="m6,29H2c-.55224609,0-1,.44726562-1,1s.44775391,1,1,1h4c.55224609,0,1-.44726562,1-1s-.44775391-1-1-1Z" style="stroke-width:0px;"/></g></svg>