<?xml version="1.0" encoding="UTF-8"?><svg id="Layer_1" xmlns="http://www.w3.org/2000/svg" viewBox="0 0 64 64"><g id="Talk"><path d="m58.32000732,34.0199585c-1.29998779.63000488-2.77001953.9800415-4.32000732.9800415s-3.02001953-.35003662-4.33001709-.98999023c-2,.10998535-3.73999023,1.19995117-4.75,2.79998779l1.92004395,1.40997314,6.57995605-1c.55999756-.08996582,1.05999756.29003906,1.14001465.83001709.09002686.54998779-.28997803,1.05999756-.84002686,1.14001465l-6.98999023,1.07000732c-.26000977.03997803-.52996826-.0300293-.73999023-.18005371l-1.84997559-1.35998535-5.40002441-3.9699707c-.42999268-.32000732-.95996094-.45001221-1.48999023-.36999512-.5300293.07995605-.98999023.36999512-1.30999756.79998779-.30999756.42999268-.44000244.95001221-.35998535,1.47998047.07995605.5300293.35998535.98999023.78997803,1.30999756l7.63000488,5.60003662,1.71002197,1.25994873,9.36999512-1.42999268c.55999756-.08996582,1.05999756.29003906,1.13995361.84002686.09002686.53997803-.28997803,1.04998779-.83996582,1.14001465l-9.7800293,1.48999023c-.04998779.01000977-.09997559.01000977-.14996338.01000977-.21002197,0-.41998291-.05999756-.59002686-.19000244l-.85998535-.63000488v3.94000244h8c.54998779,0,1,.45001221,1,1v6c0,.54998779-.45001221,1-1,1h-2v6h13c.54998779,0,1-.45001221,1-1v-23c0-3.20001221-2.52001953-5.82000732-5.67999268-5.9800415Z" style="stroke-width:0px;"/><path d="m54,33c4.41113281,0,8-3.58886719,8-8s-3.58886719-8-8-8-8,3.58886719-8,8,3.58886719,8,8,8Zm-5-10c0-.55273438.44726562-1,1-1s1,.44726562,1,1v1c0,.55273438-.44726562,1-1,1s-1-.44726562-1-1v-1Z" style="stroke-width:0px;"/><path d="m11,57v-6c0-.42999268.27001953-.79003906.65002441-.92999268l-5.36004639-5.36004639c-.38995361-.38995361-.38995361-1.02996826,0-1.41998291.39001465-.39001465,1.0300293-.39001465,1.42004395,0l6.69995117,6.71002197h11.59002686c1.09997559,0,2-.90002441,2-2,0-1.10003662-.90002441-2-2-2h-9c-.27001953,0-.52001953-.10998535-.71002197-.29003906l-5-5c-.38995361-.38995361-.38995361-1.02996826,0-1.41998291.39001465-.39001465,1.0300293-.39001465,1.42004395,0l4.69995117,4.71002197h2.59002686v-4c0-3.20001221-2.52001953-5.82000732-5.67999268-5.9800415-1.29998779.63000488-2.77001953.9800415-4.32000732.9800415s-3.02001953-.35003662-4.32000732-.9800415c-3.15997314.16003418-5.67999268,2.7800293-5.67999268,5.9800415v23c0,.54998779.45001221,1,1,1h13v-6h-2c-.54998779,0-1-.45001221-1-1Z" style="stroke-width:0px;"/><rect x="13" y="52" width="38" height="4" style="stroke-width:0px;"/><rect x="16" y="58" width="32" height="6" style="stroke-width:0px;"/><path d="m10,33c4.41113281,0,8-3.58886719,8-8s-3.58886719-8-8-8-8,3.58886719-8,8,3.58886719,8,8,8Zm3-10c0-.55273438.44726562-1,1-1s1,.44726562,1,1v1c0,.55273438-.44726562,1-1,1s-1-.44726562-1-1v-1Z" style="stroke-width:0px;"/><path d="m21,18h1v3c0,.38476562.22070312.734375.56640625.90136719.34765625.16699219.7578125.12109375,1.05859375-.12011719l4.72558594-3.78125h7.29882812l4.72558594,3.78125c.18066406.14453125.40234375.21875.625.21875.14746094,0,.29589844-.03222656.43359375-.09863281.34570312-.16699219.56640625-.51660156.56640625-.90136719v-3h1c1.65429688,0,3-1.34570312,3-3V3c0-1.65429688-1.34570312-3-3-3h-22c-1.65429688,0-3,1.34570312-3,3v12c0,1.65429688,1.34570312,3,3,3Zm17-10c.55230713,0,1,.44769287,1,1,0,.55224609-.44769287,1-1,1s-1-.44775391-1-1c0-.55230713.44769287-1,1-1Zm-6,0c.55230713,0,1,.44769287,1,1,0,.55224609-.44769287,1-1,1s-1-.44775391-1-1c0-.55230713.44769287-1,1-1Zm-6,0c.55230713,0,1,.44769287,1,1,0,.55224609-.44769287,1-1,1s-1-.44775391-1-1c0-.55230713.44769287-1,1-1Z" style="stroke-width:0px;"/></g></svg>