<?xml version="1.0" encoding="UTF-8"?><svg id="Layer_1" xmlns="http://www.w3.org/2000/svg" viewBox="0 0 64 64"><g id="User"><rect x="11" y="1" width="42" height="62" rx="8" ry="8" style="fill:#d9ecff; stroke-width:0px;"/><rect x="16" y="9" width="32" height="49" rx="4" ry="4" style="fill:#b9d8f9; stroke-width:0px;"/><circle cx="32" cy="25" r="9" style="fill:#64c4ff; stroke-width:0px;"/><path d="m32,34c-2.42773438,0-4.74316406-.98730469-6.43750807-2.72753906.12110182-.29589844.25098464-.5625.3925862-.8046875,1.25292969-2.13964844,3.56933594-3.46777344,6.04492188-3.46777344s4.79199219,1.328125,6.04394531,3.46777344c.14257812.2421875.27246094.50878906.39354629.8046875-1.69432754,1.74023438-4.00975723,2.72753906-6.4374916,2.72753906Z" style="fill:#89cef4; stroke-width:0px;"/><circle cx="32" cy="24" r="4" style="fill:#a9e2fc; stroke-width:0px;"/><rect x="23" y="39" width="18" height="8" rx="2" ry="2" style="fill:#64c4ff; stroke-width:0px;"/><path d="m45,0h-26c-4.96289062,0-9,4.03710938-9,9v46c0,4.96289062,4.03710938,9,9,9h26c4.96289062,0,9-4.03710938,9-9V9c0-4.96289062-4.03710938-9-9-9Zm7,55c0,3.859375-3.140625,7-7,7h-26c-3.859375,0-7-3.140625-7-7V9c0-3.859375,3.140625-7,7-7h26c3.859375,0,7,3.140625,7,7v46Z" style="fill:#393e4c; stroke-width:0px;"/><path d="m44,8h-24c-2.75683594,0-5,2.24316406-5,5v41c0,2.75683594,2.24316406,5,5,5h24c2.75683594,0,5-2.24316406,5-5V13c0-2.75683594-2.24316406-5-5-5Zm3,46c0,1.65429688-1.34570312,3-3,3h-24c-1.65429688,0-3-1.34570312-3-3V13c0-1.65429688,1.34570312-3,3-3h24c1.65429688,0,3,1.34570312,3,3v41Z" style="fill:#393e4c; stroke-width:0px;"/><path d="m30,6h8c.55273438,0,1-.44726562,1-1s-.44726562-1-1-1h-8c-.55273438,0-1,.44726562-1,1s.44726562,1,1,1Z" style="fill:#393e4c; stroke-width:0px;"/><circle cx="26" cy="5" r="1" style="fill:#393e4c; stroke-width:0px;"/><path d="m32,15c-5.51367188,0-10,4.48632812-10,10,0,5.47283099,4.46650829,10,10,10,5.53590431,0,10-4.52985469,10-10,0-5.51367188-4.48632812-10-10-10Zm-5.22283936,16.04626465c.67108154-1.18078613,1.72106934-2.09619141,2.97753906-2.60339355.67828369.34448242,1.43395996.55712891,2.24530029.55712891s1.5670166-.21264648,2.24530029-.55712891c1.25646973.50720215,2.30645752,1.42260742,2.97753906,2.60339355-1.40307617,1.21374512-3.22650146,1.95373535-5.22283936,1.95373535s-3.81976318-.73999023-5.22283936-1.95373535Zm5.22283936-4.04626465c-1.65429688,0-3-1.34570312-3-3s1.34570312-3,3-3,3,1.34570312,3,3-1.34570312,3-3,3Zm6.60894775,2.50036621c-.69226074-1.01464844-1.60443115-1.85522461-2.66894531-2.45861816.65447998-.84545898,1.05999756-1.89239502,1.05999756-3.04174805,0-2.75683594-2.24316406-5-5-5s-5,2.24316406-5,5c0,1.14935303.40551758,2.19628906,1.05999756,3.04174805-1.06451416.60339355-1.97668457,1.44396973-2.66894531,2.45861816-.87664795-1.28320312-1.39105225-2.8324585-1.39105225-4.50036621,0-4.41113281,3.58886719-8,8-8s8,3.58886719,8,8c0,1.66790771-.5144043,3.21716309-1.39105225,4.50036621Z" style="fill:#393e4c; stroke-width:0px;"/><path d="m39,38h-14c-1.65429688,0-3,1.34570312-3,3v4c0,1.65429688,1.34570312,3,3,3h14c1.65429688,0,3-1.34570312,3-3v-4c0-1.65429688-1.34570312-3-3-3Zm1,7c0,.55175781-.44824219,1-1,1h-14c-.55175781,0-1-.44824219-1-1v-4c0-.55175781.44824219-1,1-1h14c.55175781,0,1,.44824219,1,1v4Z" style="fill:#393e4c; stroke-width:0px;"/><circle cx="28" cy="43" r="1" style="fill:#393e4c; stroke-width:0px;"/><circle cx="32" cy="43" r="1" style="fill:#393e4c; stroke-width:0px;"/><circle cx="36" cy="43" r="1" style="fill:#393e4c; stroke-width:0px;"/><path d="m37,52h-10c-.55273438,0-1,.44726562-1,1s.44726562,1,1,1h10c.55273438,0,1-.44726562,1-1s-.44726562-1-1-1Z" style="fill:#393e4c; stroke-width:0px;"/></g></svg>