<?xml version="1.0" encoding="UTF-8"?><svg id="Layer_1" xmlns="http://www.w3.org/2000/svg" viewBox="0 0 64 64"><g id="Contract"><path d="m13,4h32.90002441c-.46002197-2.2800293-2.4800415-4-4.90002441-4H7C4.23999023,0,2,2.23999023,2,5v48c0,2.41998291,1.7199707,4.44000244,4,4.89996338V11c0-3.85998535,3.14001465-7,7-7Z" style="stroke-width:0px;"/><path d="m61.38000488,30.61999512c.39001465-.39001465.61999512-.94000244.61999512-1.5,0-1.16998291-.95001221-2.11999512-2.11999512-2.11999512-.57000732,0-1.09997559.2199707-1.5.61999512l-1.26000977,1.26000977,3,3,1.26000977-1.26000977Z" style="stroke-width:0px;"/><polygon points="50.41998291 35 35.89001465 49.5199585 34.46002197 54.53997803 39.47998047 53.10998535 52 40.58996582 54.01000977 38.58996582 50.41998291 35" style="stroke-width:0px;"/><path d="m55.41998291,30l-3.58996582,3.58996582,3.58996582,3.59002686,2.16503906-2.17498779,1.04498291,1.04498291c.52001953.52001953.80999756,1.21002197.80999756,1.95001221s-.28997803,1.42999268-.80999756,1.95001221l-3.34002686,3.33996582c-.17999268.19000244-.28997803.44000244-.28997803.71002197v3c0,.54998779.45001221,1,1,1s1-.45001221,1-1v-2.59002686l3.04998779-3.03997803c1.85003662-1.85998535,1.85003662-4.88000488,0-6.73999023l-4.63000488-4.63000488Z" style="stroke-width:0px;"/><path d="m30,29.96582031c4.13427734-1.1484375,7-4.90039062,7-9.21191406v-4.13574219l-7-3.5-7,3.5v4.13574219c0,4.31152344,2.86572266,8.06347656,7,9.21191406Zm-3.70703125-8.67285156c.390625-.390625,1.0234375-.390625,1.4140625,0l1.29296875,1.29296875,3.29296875-3.29296875c.390625-.390625,1.0234375-.390625,1.4140625,0s.390625,1.0234375,0,1.4140625l-4,4c-.1953125.1953125-.45117188.29296875-.70703125.29296875s-.51171875-.09765625-.70703125-.29296875l-2-2c-.390625-.390625-.390625-1.0234375,0-1.4140625Z" style="stroke-width:0px;"/><path d="m40.27001953,54.95996094l-7,2c-.09002686.0300293-.17999268.04003906-.27001953.04003906-.26000977,0-.52001953-.10003662-.71002197-.29003906-.25-.25994873-.34997559-.63995361-.25-.97998047l1.35144043-4.72998047h-16.39141846c-.55224609,0-1-.44726562-1-1s.44775391-1,1-1h16.96282959l.07714844-.27001953c.04003906-.16998291.13000488-.32000732.25-.44000244l2.28997803-2.28997803h-19.57995605c-.55224609,0-1-.44726562-1-1s.44775391-1,1-1h21.57995605l3-3h-24.57995605c-.55224609,0-1-.44726562-1-1s.44775391-1,1-1h26.57995605l8.42004395-8.42004395V11c0-2.76000977-2.23999023-5-5-5H13c-2.76000977,0-5,2.23999023-5,5v48c0,2.76000977,2.23999023,5,5,5h34c2.76000977,0,5-2.23999023,5-5v-15.58001709l-11.28997803,11.28997803c-.11999512.11999512-.27001953.21002197-.44000244.25ZM21,16c0-.37890625.21386719-.72460938.55273438-.89453125l8-4c.28125-.140625.61328125-.140625.89453125,0l8,4c.33886719.16992188.55273438.515625.55273438.89453125v4.75390625c0,5.31445312-3.60107422,9.92675781-8.75732422,11.21582031-.07958984.02050781-.16113281.03027344-.24267578.03027344s-.16308594-.00976562-.24267578-.03027344c-5.15625-1.2890625-8.75732422-5.90136719-8.75732422-11.21582031v-4.75390625Zm1,18h16c.55224609,0,1,.44726562,1,1s-.44775391,1-1,1h-16c-.55224609,0-1-.44726562-1-1s.44775391-1,1-1Zm7,23h-3.05078125c-.87939453,0-1.70605469-.34179688-2.32763672-.96386719-.43408585-.43457031-1.12109375-.50097656-1.63085938-.16210938l-1.43603516.95800781c-.17041016.11328125-.36328125.16796875-.55371094.16796875-.32324219,0-.64013672-.15625-.83300781-.4453125-.30615234-.45898438-.18212891-1.08007812.27734375-1.38671875l1.43652344-.95800781c1.30126953-.8671875,3.04882812-.69335938,4.15429688.41210938.24316406.24414062.56787109.37792969.91308594.37792969h3.05078125c.55224609,0,1,.44726562,1,1s-.44775391,1-1,1Z" style="stroke-width:0px;"/></g></svg>