<?xml version="1.0" encoding="UTF-8"?><svg id="Layer_1" xmlns="http://www.w3.org/2000/svg" viewBox="0 0 64 64"><g id="Feedback"><circle cx="39" cy="18" r="12" style="fill:#ffe094; stroke-width:0px;"/><circle cx="12" cy="18" r="12" style="fill:#ffe094; stroke-width:0px;"/><path d="m16,16.99804688c-.98046875,0-1.9609375-.37304688-2.70703125-1.11914062-.390625-.390625-.390625-1.0234375,0-1.4140625s1.0234375-.390625,1.4140625,0c.71289062.71289062,1.87304688.71289062,2.5859375,0,.390625-.390625,1.0234375-.390625,1.4140625,0s.390625,1.0234375,0,1.4140625c-.74609375.74609375-1.7265625,1.11914062-2.70703125,1.11914062Z" style="fill:#ffb666; stroke-width:0px;"/><path d="m8,16.99804688c-.98046875,0-1.9609375-.37304688-2.70703125-1.11914062-.390625-.390625-.390625-1.0234375,0-1.4140625s1.0234375-.390625,1.4140625,0c.71289062.71289062,1.87304688.71289062,2.5859375,0,.390625-.390625,1.0234375-.390625,1.4140625,0s.390625,1.0234375,0,1.4140625c-.74609375.74609375-1.7265625,1.11914062-2.70703125,1.11914062Z" style="fill:#ffb666; stroke-width:0px;"/><path d="m36.29296875,16.70703125c.1953125.1953125.45117188.29296875.70703125.29296875s.51171875-.09765625.70703125-.29296875c.390625-.390625.390625-1.0234375,0-1.4140625l-2-2c-.390625-.390625-1.0234375-.390625-1.4140625,0l-2,2c-.390625.390625-.390625,1.0234375,0,1.4140625s1.0234375.390625,1.4140625,0l1.29296875-1.29296875,1.29296875,1.29296875Z" style="fill:#ffb666; stroke-width:0px;"/><path d="m45.70703125,15.29296875l-2-2c-.390625-.390625-1.0234375-.390625-1.4140625,0l-2,2c-.390625.390625-.390625,1.0234375,0,1.4140625s1.0234375.390625,1.4140625,0l1.29296875-1.29296875,1.29296875,1.29296875c.1953125.1953125.45117188.29296875.70703125.29296875s.51171875-.09765625.70703125-.29296875c.390625-.390625.390625-1.0234375,0-1.4140625Z" style="fill:#ffb666; stroke-width:0px;"/><path d="m43,19h-8c-.55273438,0-1,.44726562-1,1v1c0,2.75683594,2.24316406,5,5,5s5-2.24316406,5-5v-1c0-.55273438-.44726562-1-1-1Z" style="fill:#ffb666; stroke-width:0px;"/><path d="m15.99902344,24c-.20849609,0-.41894531-.06542969-.59912109-.20019531-2.00195312-1.5-4.79785156-1.5-6.79980469,0-.44287109.33105469-1.06787109.24316406-1.40039062-.20019531-.33105469-.44140625-.24169922-1.06835938.20019531-1.39941406,2.70898438-2.03125,6.49121094-2.03125,9.20019531,0,.44189453.33105469.53125.95800781.20019531,1.39941406-.19677734.26269531-.49707031.40039062-.80126953.40039062Z" style="fill:#ffb666; stroke-width:0px;"/><path d="m47,4c-.55273438,0-1-.44726562-1-1V1c0-.55273438.44726562-1,1-1s1,.44726562,1,1v2c0,.55273438-.44726562,1-1,1Z" style="fill:#64c4ff; stroke-width:0px;"/><path d="m54,9h-2c-.55273438,0-1-.44726562-1-1s.44726562-1,1-1h2c.55273438,0,1,.44726562,1,1s-.44726562,1-1,1Z" style="fill:#64c4ff; stroke-width:0px;"/><path d="m51,5c-.25585938,0-.51171875-.09765625-.70703125-.29296875-.390625-.390625-.390625-1.0234375,0-1.4140625l2-2c.390625-.390625,1.0234375-.390625,1.4140625,0s.390625,1.0234375,0,1.4140625l-2,2c-.1953125.1953125-.45117188.29296875-.70703125.29296875Z" style="fill:#64c4ff; stroke-width:0px;"/><path d="m64,44v12.48999023c0,.97998047-.28997803,1.95001221-.84002686,2.77001953l-3.15997314,4.73999023h-18l-3.97998047-2.27001953c-1.86999512-1.07000732-3.02001953-3.05999756-3.02001953-5.21002197v-5.11999512c0-2.10998535,1.10998535-4.05999756,2.90997314-5.14996338l2.09002686-1.25v-16c0-1.66003418,1.34002686-3,3-3,.83001709,0,1.58001709.33996582,2.11999512.88000488.53997803.53997803.88000488,1.28997803.88000488,2.11999512v11c0-1.66003418,1.34002686-3,3-3,.83001709,0,1.58001709.33996582,2.11999512.88000488.53997803.53997803.88000488,1.28997803.88000488,2.11999512v2c0-1.66003418,1.34002686-3,3-3,.83001709,0,1.58001709.33996582,2.11999512.88000488.53997803.53997803.88000488,1.28997803.88000488,2.11999512v2c0-.83001709.34002686-1.58001709.88000488-2.11999512.53997803-.54003906,1.28997803-.88000488,2.11999512-.88000488,1.65997314,0,3,1.33996582,3,3Z" style="fill:#f9c7c0; stroke-width:0px;"/><path d="m60,41.17999268v5.82000732c0,.54998779-.45001221,1-1,1s-1-.45001221-1-1v-3c0-.83001709.34002686-1.58001709.88000488-2.11999512.30999756-.30999756.69000244-.55999756,1.11999512-.70001221Z" style="fill:#eaa7a0; stroke-width:0px;"/><path d="m48,37.17999268v8.80999756c0,.54998779-.45001221,1-1,1s-1-.45001221-1-1v-5.98999023c0-1.30999756.83001709-2.42004395,2-2.82000732Z" style="fill:#eaa7a0; stroke-width:0px;"/><path d="m40,45v5c0,.54998779-.45001221,1-1,1s-1-.45001221-1-1v-3.79998779l2-1.20001221Z" style="fill:#eaa7a0; stroke-width:0px;"/><path d="m54,39.17999268v6.82000732c0,.54998779-.45001221,1-1,1s-1-.45001221-1-1v-4c0-1.30999756.83001709-2.42004395,2-2.82000732Z" style="fill:#eaa7a0; stroke-width:0px;"/></g></svg>