<?xml version="1.0" encoding="UTF-8"?><svg id="Layer_1" xmlns="http://www.w3.org/2000/svg" viewBox="0 0 64 64"><g id="FAQ"><rect x="39.67157288" y="38.96446609" width="5.65685425" height="7.07106781" transform="translate(-17.6040764 42.5) rotate(-45)" style="fill:#45a9f4; stroke-width:0px;"/><circle cx="26" cy="26" r="21" style="fill:#d9ecff; stroke-width:0px;"/><circle cx="26" cy="26" r="16" style="fill:#b9d8f9; stroke-width:0px;"/><path d="m58.7578125,63c-1.13378906,0-2.19921875-.44140625-3-1.2421875l-13.7578125-13.7578125,6-6,13.7578125,13.7578125c.80078125.80078125,1.2421875,1.86621094,1.2421875,3,0,2.33886719-1.90332031,4.2421875-4.2421875,4.2421875Z" style="fill:#45a9f4; stroke-width:0px;"/><rect x="40.84314575" y="44.37867966" width="11.3137085" height="4.24264069" transform="translate(-19.26093065 46.5) rotate(-45)" style="fill:#64c4ff; stroke-width:0px;"/><path d="m33,21h-2c-1.65429688,0-3-1.34570312-3-3V4c0-1.65429688,1.34570312-3,3-3h26c1.65429688,0,3,1.34570312,3,3v14c0,1.65429688-1.34570312,3-3,3h-18l-5.99902344,5-.00097656-5Z" style="fill:#ffe094; stroke-width:0px;"/><path d="m11,26c0-7.90625,6.17675781-14.48242188,14.06201172-14.97167969.55126953-.03417969.97021484-.50878906.93603516-1.05957031-.03369141-.55175781-.51220703-.96582031-1.06005859-.93652344-8.93701172.55371094-15.93798828,8.00683594-15.93798828,16.96777344,0,9.37402344,7.62597656,17,17,17s17-7.62597656,17-17c0-.71972656-.04199219-1.4140625-.12695312-2.12011719-.06640625-.54882812-.55566406-.94042969-1.11328125-.87304688-.54882812.06738281-.93945312.56542969-.87304688,1.11328125.07617188.62597656.11328125,1.24121094.11328125,1.87988281,0,8.27148438-6.72851562,15-15,15-8.27099609,0-15-6.72851562-15-15Z" style="fill:#393e4c; stroke-width:0px;"/><path d="m62.46679688,55.05273438l-10.05273438-10.05273438.29296875-.29296875c.390625-.390625.390625-1.0234375,0-1.4140625l-3-3c-.390625-.390625-1.0234375-.390625-1.4140625,0l-1,1-.29296875.29296875-2.98345947-2.98345947c2.50640869-3.57232666,3.98345947-7.91693115,3.98345947-12.60247803,0-.73242188-.03515625-1.44042969-.10546875-2.10449219-.05761719-.54882812-.54589844-.95019531-1.09863281-.88964844-.54882812.05761719-.94726562.54980469-.88964844,1.09863281.0625.59472656.09375,1.23242188.09375,1.89550781,0,11.02832031-8.97167969,20-20,20-11.02783203,0-20-8.97167969-20-20C6,15.29980469,14.36621094,6.52734375,25.04638672,6.02929688c.55175781-.02539062.97802734-.49414062.95263672-1.04589844-.02539062-.55078125-.51757812-.98242188-1.04541016-.95214844C13.20361328,4.57910156,4,14.22949219,4,26c0,12.13085938,9.86914062,22,22,22,4.68554688,0,9.03015137-1.47705078,12.60247803-3.98345947l2.98345947,2.98345947-.29296875.29296875-1,1c-.390625.390625-.390625,1.0234375,0,1.4140625l3,3c.1953125.1953125.45117188.29296875.70703125.29296875s.51171875-.09765625.70703125-.29296875l.29296875-.29296875,10.05273438,10.05273438c.97460938.97460938,2.32519531,1.53320312,3.70703125,1.53320312,1.38964844,0,2.70410156-.54296875,3.71191406-1.53808594.98535156-.99804688,1.52832031-2.3125,1.52832031-3.70214844,0-1.38183594-.55859375-2.73242188-1.53320312-3.70703125Zm-22.26751709-12.26751709c.93164062-.78936768,1.79656982-1.65429688,2.5859375-2.5859375l2.80072021,2.80072021-2.5859375,2.5859375-2.80072021-2.80072021Zm3.80072021,7.80072021l-1.5859375-1.5859375.29296875-.29296875,1-1,4-4,1-1,.29296875-.29296875,1.5859375,1.5859375-6.5859375,6.5859375Zm17.05761719,10.46191406c-1.2421875,1.22558594-3.38378906,1.2109375-4.59082031.00488281l-10.05273438-10.05273438,4.5859375-4.5859375,10.05273438,10.05273438c.6015625.60253906.94726562,1.4375.94726562,2.29296875,0,.859375-.33789062,1.67578125-.94238281,2.28808594Z" style="fill:#393e4c; stroke-width:0px;"/><path d="m31,22h1v4c0,.38769531.22460938.74121094.57568359.90527344.13574219.06347656.28027344.09472656.42431641.09472656.22949219,0,.45703125-.07910156.640625-.23144531l5.72167969-4.76855469h17.63769531c2.20605469,0,4-1.79394531,4-4V4c0-2.20605469-1.79394531-4-4-4h-26c-2.20556641,0-4,1.79394531-4,4v14c0,2.20605469,1.79443359,4,4,4Zm-2-18c0-1.10253906.89697266-2,2-2h26c1.10253906,0,2,.89746094,2,2v14c0,1.10253906-.89746094,2-2,2h-18c-.234375,0-.4609375.08203125-.640625.23144531l-4.359375,3.63378906v-2.86523438c0-.55273438-.44726562-1-1-1h-2c-1.10302734,0-2-.89746094-2-2V4Z" style="fill:#393e4c; stroke-width:0px;"/><path d="m33,16c.55273438,0,1-.44726562,1-1v-2h3c.55273438,0,1-.44726562,1-1s-.44726562-1-1-1h-3v-3h3c.55273438,0,1-.44726562,1-1s-.44726562-1-1-1h-4c-.55224609,0-1,.44726562-1,1v8c0,.55273438.44775391,1,1,1Z" style="fill:#393e4c; stroke-width:0px;"/><path d="m41,16c.55273438,0,1-.44726562,1-1v-2h2v2c0,.55273438.44726562,1,1,1s1-.44726562,1-1v-6c0-1.65429688-1.34570312-3-3-3s-3,1.34570312-3,3v6c0,.55273438.44726562,1,1,1Zm1-7c0-.55175781.44824219-1,1-1s1,.44824219,1,1v2h-2v-2Z" style="fill:#393e4c; stroke-width:0px;"/><path d="m52,16c.73968506,0,1.42437744-.21539307,2.01928711-.56665039l.27368164.27368164c.1953125.1953125.45117188.29296875.70703125.29296875s.51171875-.09765625.70703125-.29296875c.390625-.390625.390625-1.0234375,0-1.4140625l-.27368164-.27368164c.35125732-.59490967.56665039-1.27960205.56665039-2.01928711v-2c0-2.20605469-1.79394531-4-4-4s-4,1.79394531-4,4v2c0,2.20605469,1.79394531,4,4,4Zm-2-6c0-1.10253906.89746094-2,2-2s2,.89746094,2,2v2c0,.17779541-.03082275.34710693-.07458496.51135254l-1.21838379-1.21838379c-.390625-.390625-1.0234375-.390625-1.4140625,0s-.390625,1.0234375,0,1.4140625l1.21838379,1.21838379c-.16424561.04376221-.33355713.07458496-.51135254.07458496-1.10253906,0-2-.89746094-2-2v-2Z" style="fill:#393e4c; stroke-width:0px;"/><path d="m57.921875,34.6171875c2.25585938-.94042969,3.49511719-3.37207031,2.9453125-5.78222656-.41796875-1.83105469-1.87109375-3.28417969-3.70214844-3.70214844-1.5234375-.34960938-3.08300781.00097656-4.28027344.95605469-1.19824219.95507812-1.88476562,2.38085938-1.88476562,3.91113281,0,.55273438.44726562,1,1,1s1-.44726562,1-1c0-.91796875.41210938-1.7734375,1.13183594-2.34765625.72949219-.58203125,1.6484375-.78417969,2.58789062-.5703125,1.0703125.24511719,1.953125,1.12792969,2.19824219,2.19824219.33789062,1.48144531-.38867188,2.91699219-1.765625,3.49121094-1.30761719.54492188-2.15234375,1.81152344-2.15234375,3.22851562,0,.55273438.44726562,1,1,1s1-.44726562,1-1c0-.60644531.36132812-1.14941406.921875-1.3828125Z" style="fill:#393e4c; stroke-width:0px;"/><circle cx="56" cy="40" r="1" style="fill:#393e4c; stroke-width:0px;"/><path d="m4.37109375,2.03320312c.78662109.13769531,1.45800781.80957031,1.59619141,1.59570312.15283203.87011719-.24121094,1.70410156-1.00439453,2.12402344-1.22900391.67773438-1.96289062,1.859375-1.96289062,3.16015625v.08691406c0,.55273438.44775391.95605469,1,.95605469s1-.49023438,1-1.04296875c0-.56152344.34716797-1.08789062.92822266-1.40820312,1.5-.82617188,2.30712891-2.5234375,2.00878906-4.22167969C7.65380859,1.66992188,6.32958984.34570312,4.71679688.0625c-1.18261719-.20605469-2.38037109.11035156-3.28808594.87304688s-1.42871094,1.87988281-1.42871094,3.06445312c0,.55273438.44775391,1,1,1s1-.44726562,1-1c0-.59277344.26074219-1.15136719.71484375-1.53222656.46142578-.38769531,1.04931641-.54296875,1.65625-.43457031Z" style="fill:#393e4c; stroke-width:0px;"/><circle cx="4" cy="13" r="1" style="fill:#393e4c; stroke-width:0px;"/><path d="m23.92822266,27.50488281c1.5-.82617188,2.30712891-2.5234375,2.00878906-4.22167969-.28320312-1.61328125-1.60742188-2.9375-3.22021484-3.22070312-1.18066406-.20410156-2.38085938.11132812-3.28808594.87304688-.90771484.76269531-1.42871094,1.87988281-1.42871094,3.06445312,0,.55273438.44775391,1,1,1s1-.44726562,1-1c0-.59277344.26074219-1.15136719.71484375-1.53222656.4609375-.38769531,1.04882812-.54394531,1.65625-.43457031.78662109.13769531,1.45800781.80957031,1.59619141,1.59570312.15283203.87011719-.24121094,1.70410156-1.00439453,2.12402344-1.22900391.67773438-1.96289062,1.859375-1.96289062,3.16015625v.08691406c0,.55273438.44775391.95605469,1,.95605469s1-.49023438,1-1.04296875c0-.56152344.34716797-1.08789062.92822266-1.40820312Z" style="fill:#393e4c; stroke-width:0px;"/><circle cx="22" cy="33" r="1" style="fill:#393e4c; stroke-width:0px;"/></g></svg>