<?xml version="1.0" encoding="UTF-8"?><svg id="Layer_1" xmlns="http://www.w3.org/2000/svg" viewBox="0 0 64 64"><g id="Contract"><path d="m56,49c-.55224609,0-1-.44726562-1-1v-3c0-.265625.10546875-.51953125.29296875-.70703125l3.34033203-3.34082031c.52148438-.52148438.80859375-1.21484375.80859375-1.95214844s-.28710938-1.43066406-.80859375-1.95214844l-5.34033203-5.34082031c-.390625-.390625-.390625-1.0234375,0-1.4140625s1.0234375-.390625,1.4140625,0l5.34033203,5.34082031c1.85644531,1.85644531,1.85644531,4.87597656,0,6.73242188l-3.04736328,3.04785156v2.5859375c0,.55273438-.44775391,1-1,1Z" style="fill:#268edb; stroke-width:0px;"/><rect x="2" width="44" height="58" rx="5" ry="5" style="fill:#b9d8f9; stroke-width:0px;"/><path d="m6,11v46.89892578c.32324219.06591797.65759277.10107422,1,.10107422h34c2.75683594,0,5-2.24316406,5-5V5c0-.34240723-.03515625-.67675781-.10107422-1H13c-3.85986328,0-7,3.140625-7,7Z" style="fill:#9ac3ef; stroke-width:0px;"/><rect x="8" y="6" width="44" height="58" rx="5" ry="5" style="fill:#d9ecff; stroke-width:0px;"/><path d="m38,36h-16c-.55224609,0-1-.44726562-1-1s.44775391-1,1-1h16c.55224609,0,1,.44726562,1,1s-.44775391,1-1,1Z" style="fill:#ffcd7d; stroke-width:0px;"/><path d="m43,41h-26c-.55224609,0-1-.44726562-1-1s.44775391-1,1-1h26c.55224609,0,1,.44726562,1,1s-.44775391,1-1,1Z" style="fill:#ffcd7d; stroke-width:0px;"/><path d="m43,46h-26c-.55224609,0-1-.44726562-1-1s.44775391-1,1-1h26c.55224609,0,1,.44726562,1,1s-.44775391,1-1,1Z" style="fill:#ffcd7d; stroke-width:0px;"/><path d="m43,51h-26c-.55224609,0-1-.44726562-1-1s.44775391-1,1-1h26c.55224609,0,1,.44726562,1,1s-.44775391,1-1,1Z" style="fill:#ffcd7d; stroke-width:0px;"/><path d="m38.44726562,15.10546875l-8-4c-.28125-.140625-.61328125-.140625-.89453125,0l-8,4c-.33886719.16992188-.55273438.515625-.55273438.89453125v4.75390625c0,5.31445312,3.60107422,9.92675781,8.75732422,11.21582031.07958984.02050781.16113281.03027344.24267578.03027344s.16308594-.00976562.24267578-.03027344c5.15625-1.2890625,8.75732422-5.90136719,8.75732422-11.21582031v-4.75390625c0-.37890625-.21386719-.72460938-.55273438-.89453125Z" style="fill:#ffcd7d; stroke-width:0px;"/><path d="m29,25c-.25585938,0-.51171875-.09765625-.70703125-.29296875l-2-2c-.390625-.390625-.390625-1.0234375,0-1.4140625s1.0234375-.390625,1.4140625,0l1.29296875,1.29296875,3.29296875-3.29296875c.390625-.390625,1.0234375-.390625,1.4140625,0s.390625,1.0234375,0,1.4140625l-4,4c-.1953125.1953125-.45117188.29296875-.70703125.29296875Z" style="fill:#ffb666; stroke-width:0px;"/><path d="m59.70703125,35.29296875l-5-5c-.39048258-.39048258-1.02357992-.39048258-1.4140625,0l-18.18310547,18.18310547-2.07128906,7.24951172c-.10009766.34863281-.00244141.72460938.25439453.98144531.18994141.19042969.4453125.29296875.70703125.29296875.09179688,0,.18408203-.01269531.27490234-.03808594l7.24694939-2.07055697c.00078381-.00022395.00149762-.00064396.00207404-.00122037l18.18310547-18.18310547c.39048258-.39048258.39048258-1.02357992,0-1.4140625Z" style="fill:#64c4ff; stroke-width:0px;"/><path d="m58.87890625,28c-.83398438,0-1.61767578.32421875-2.20703125.9140625l-2.37890625,2.37890625c-.390625.390625-.390625,1.0234375,0,1.4140625l3,3c.1953125.1953125.45117188.29296875.70703125.29296875s.51171875-.09765625.70703125-.29296875l2.37890625-2.37890625c.58105469-.58105469.9140625-1.38476562.9140625-2.20703125,0-1.72070312-1.39990234-3.12109375-3.12109375-3.12109375Z" style="fill:#268edb; stroke-width:0px;"/><path d="m20.00097656,57c-.32324219,0-.64013672-.15625-.83300781-.4453125-.30615234-.45898438-.18212891-1.08007812.27734375-1.38671875l1.43652344-.95800781c1.30126953-.8671875,3.04882812-.69335938,4.15429688.41210938.24316406.24414062.56787109.37792969.91308594.37792969h4.05078125c.55224609,0,1,.44726562,1,1s-.44775391,1-1,1h-4.05078125c-.87939453,0-1.70605469-.34179688-2.32763672-.96386719-.43408585-.43457031-1.12109375-.50097656-1.63085938-.16210938l-1.43603516.95800781c-.17041016.11328125-.36328125.16796875-.55371094.16796875Z" style="fill:#ffcd7d; stroke-width:0px;"/><path d="m54.70703125,30.29296875c-.39050293-.39050293-1.02355957-.39050293-1.4140625,0l-4.70703125,4.70703125,6.4140625,6.4140625,4.70703125-4.70703125c.39050293-.39050293.39050293-1.02362061,0-1.4140625l-5-5Z" style="fill:#45a9f4; stroke-width:0px;"/><path d="m33.03857422,55.72558594c-.10009766.34863281-.00244141.72460938.25439453.98144531.18994141.19042969.4453125.29296875.70703125.29296875.09179688,0,.18408203-.01269531.27490234-.03808594l7.24694824-2.07055664-6.4119873-6.4152832-2.07128906,7.24951172Z" style="fill:#45a9f4; stroke-width:0px;"/></g></svg>