<?xml version="1.0" encoding="UTF-8"?><svg id="Layer_1" xmlns="http://www.w3.org/2000/svg" viewBox="0 0 64 64"><g id="Customer_Service"><path d="m11,23h4.16998291c1.59002686,0,3.17999268-.42004395,4.58001709-1.21002197,1.39001465-.77996826,2.57000732-1.92999268,3.39001465-3.29998779.17999268-.30999756.51000977-.48999023.85998535-.48999023s.67999268.17999268.85998535.48999023c1.67004395,2.77996826,4.72003174,4.51000977,7.97003174,4.51000977h4.16998291c.54998779,0,1-.45001221,1-1v-8c0-7.72003174-6.2800293-14-14-14s-14,6.27996826-14,14v8c0,.54998779.45001221,1,1,1Zm1-9c0-6.61999512,5.38000488-12,12-12s12,5.38000488,12,12v1.98999023c-.65002441-1.53997803-1.59002686-2.96002197-2.80999756-4.17999268-2.46002197-2.46002197-5.72998047-3.80999756-9.19000244-3.80999756-5.40002441,0-10.0300293,3.29998779-12,7.98999023v-1.98999023Z" style="stroke-width:0px;"/><path d="m9,35h3.38000488c-.25-.96002197-.38000488-1.97003174-.38000488-3v-7h-3c-1.65002441,0-3,1.34997559-3,3v4c0,1.64996338,1.34997559,3,3,3Z" style="stroke-width:0px;"/><path d="m36,32c0,1.02996826-.13000488,2.03997803-.38000488,3h2.38000488v2h-7c-.54998779,0-1-.45001221-1-1s.45001221-1,1-1h2.53997803c.30004883-.95001221.46002197-1.95001221.46002197-3v-7h-1.16998291c-3.44000244,0-6.70001221-1.60003662-8.83001709-4.25-.90002441,1.13000488-2.01000977,2.07000732-3.27001953,2.77996826-1.69995117.96002197-3.61999512,1.47003174-5.55999756,1.47003174h-1.16998291v7c0,5.51000977,4.48999023,10,10,10,2.78997803,0,5.32000732-1.15002441,7.14001465-3h7.85998535c.54998779,0,1-.45001221,1-1v-3.1852417c1.15966797-.41552734,2-1.51678467,2-2.8147583v-4c0-1.65002441-1.34997559-3-3-3h-3v7Zm-8,3c0,2.20996094-1.78997803,4-4,4s-4-1.79003906-4-4v-2c0-.54998779.45001221-1,1-1h6c.54998779,0,1,.45001221,1,1v2Z" style="stroke-width:0px;"/><path d="m22,35c0,1.10253906.89697266,2,2,2s2-.89746094,2-2v-1h-4v1Z" style="stroke-width:0px;"/><path d="m26.05999756,43.82000732c-.66998291.11999512-1.35998535.17999268-2.05999756.17999268s-1.39001465-.05999756-2.05999756-.17999268l2.05999756,3.28997803,2.05999756-3.28997803Z" style="stroke-width:0px;"/><path d="m17.9699707,42.36999512l-.80999756,8.92999268,5.41003418-2.70001221-3.54998779-5.67999268c-.36004639-.15997314-.71002197-.34997559-1.05004883-.54998779Z" style="stroke-width:0px;"/><polygon points="22.78076172 56 20.78076172 64 27.21923828 64 25.21923828 56 22.78076172 56" style="stroke-width:0px;"/><polygon points="20.77038574 51.73297119 21.67724609 54 22 54 26 54 26.32275391 54 27.22961426 51.73297119 24 50.11816406 20.77038574 51.73297119" style="stroke-width:0px;"/><path d="m42.42999268,45.03997803l-10.27996826-4.23999023c-.07000732.07000732-.15002441.14001465-.2300415.20001221l1.08001709,11.90997314c.0300293.35998535-.14001465.71002197-.44000244.91998291-.16998291.11004639-.35998535.17004395-.55999756.17004395-.15002441,0-.30999756-.04003906-.45001221-.10998535l-2.52996826-1.26000977-1.09002686,2.73999023c-.11999512.28997803-.36999512.51000977-.65997314.58996582l2.01000977,8.04003906h17.7199707c.54998779,0,1-.45001221,1-1v-9.64001465c0-3.65997314-2.19000244-6.92999268-5.57000732-8.32000732Z" style="stroke-width:0px;"/><path d="m20.07000732,55.36999512l-1.09002686-2.73999023-2.52996826,1.26000977c-.14001465.06994629-.29998779.10998535-.45001221.10998535-.20001221,0-.39001465-.05999756-.55999756-.17004395-.29998779-.20996094-.47003174-.55999756-.44000244-.91998291l1.08001709-11.90997314c-.08001709-.05999756-.16003418-.13000488-.2300415-.20001221l-10.27996826,4.23999023c-3.38000488,1.39001465-5.57000732,4.66003418-5.57000732,8.32000732v9.64001465c0,.54998779.45001221,1,1,1h17.7199707l2.01000977-8.04003906c-.28997803-.07995605-.53997803-.29998779-.65997314-.58996582Z" style="stroke-width:0px;"/><path d="m30.0300293,42.36999512c-.34002686.20001221-.69000244.39001465-1.05004883.54998779l-3.54998779,5.67999268,5.41003418,2.70001221-.80999756-8.92999268Z" style="stroke-width:0px;"/><path d="m60,0h-14c-2.20556641,0-4,1.79394531-4,4v12c0,2.20605469,1.79443359,4,4,4v3c0,.38476562.22021484.734375.56689453.90136719.13769531.06640625.28564453.09863281.43310547.09863281.22265625,0,.44384766-.07421875.62451172-.21875l4.72607422-3.78125h7.64941406c2.20556641,0,4-1.79394531,4-4V4c0-2.20605469-1.79443359-4-4-4Zm-5,4c.55230713,0,1,.44769287,1,1,0,.55224609-.44769287,1-1,1s-1-.44775391-1-1c0-.55230713.44769287-1,1-1Zm-1,4c0-.55273438.44775391-1,1-1s1,.44726562,1,1v3c0,.55273438-.44775391,1-1,1s-1-.44726562-1-1v-3Zm-8-3c0-.55273438.44775391-1,1-1s1,.44726562,1,1v2h2v-2c0-.55273438.44775391-1,1-1s1,.44726562,1,1v6c0,.55273438-.44775391,1-1,1s-1-.44726562-1-1v-2h-2v2c0,.55273438-.44775391,1-1,1s-1-.44726562-1-1v-6Zm13,11h-12c-.55224609,0-1-.44726562-1-1s.44775391-1,1-1h12c.55224609,0,1,.44726562,1,1s-.44775391,1-1,1Z" style="stroke-width:0px;"/></g></svg>