<?xml version="1.0" encoding="UTF-8"?><svg id="Layer_1" xmlns="http://www.w3.org/2000/svg" viewBox="0 0 64 64"><g id="User"><rect x="10" width="44" height="64" rx="9" ry="9" style="fill:#d9ecff; stroke-width:0px;"/><rect x="15" y="8" width="34" height="51" rx="5" ry="5" style="fill:#b9d8f9; stroke-width:0px;"/><path d="m38,5h-8c-.55273438,0-1-.44726562-1-1s.44726562-1,1-1h8c.55273438,0,1,.44726562,1,1s-.44726562,1-1,1Z" style="fill:#b9d8f9; stroke-width:0px;"/><circle cx="26" cy="4" r="1" style="fill:#b9d8f9; stroke-width:0px;"/><circle cx="32" cy="25" r="10" style="fill:#64c4ff; stroke-width:0px;"/><path d="m32,35c3.03289795,0,5.74957275-1.36236572,7.58508301-3.50158691-.17486572-.52606201-.38879395-1.04296875-.67785645-1.53649902-1.43164062-2.44433594-4.078125-3.96191406-6.90722656-3.96191406s-5.47558594,1.51757812-6.90722656,3.96191406c-.2890625.49353027-.50299072,1.01043701-.67785645,1.53649902,1.83551025,2.13922119,4.55218506,3.50158691,7.58508301,3.50158691Z" style="fill:#89cef4; stroke-width:0px;"/><circle cx="32" cy="24" r="5" style="fill:#a9e2fc; stroke-width:0px;"/><rect x="22" y="38" width="20" height="10" rx="3" ry="3" style="fill:#64c4ff; stroke-width:0px;"/><circle cx="28" cy="43" r="1" style="fill:#45a9f4; stroke-width:0px;"/><circle cx="32" cy="43" r="1" style="fill:#45a9f4; stroke-width:0px;"/><circle cx="36" cy="43" r="1" style="fill:#45a9f4; stroke-width:0px;"/><path d="m37,54h-10c-.55273438,0-1-.44726562-1-1s.44726562-1,1-1h10c.55273438,0,1,.44726562,1,1s-.44726562,1-1,1Z" style="fill:#64c4ff; stroke-width:0px;"/></g></svg>