<?xml version="1.0" encoding="UTF-8"?><svg id="Layer_1" xmlns="http://www.w3.org/2000/svg" viewBox="0 0 64 64"><g id="FAQ"><path d="m47.70703125,42.29296875l-5-5c-.390625-.390625-1.0234375-.390625-1.4140625,0l-4,4c-.390625.390625-.390625,1.0234375,0,1.4140625l5,5c.1953125.1953125.45117188.29296875.70703125.29296875s.51171875-.09765625.70703125-.29296875l4-4c.390625-.390625.390625-1.0234375,0-1.4140625Z" style="fill:#45a9f4; stroke-width:0px;"/><circle cx="26" cy="26" r="22" style="fill:#d9ecff; stroke-width:0px;"/><circle cx="26" cy="26" r="17" style="fill:#b9d8f9; stroke-width:0px;"/><path d="m62.46484375,55.05078125l-13.7578125-13.7578125c-.390625-.390625-1.0234375-.390625-1.4140625,0l-6,6c-.390625.390625-.390625,1.0234375,0,1.4140625l13.7578125,13.7578125c.99023438.99023438,2.30664062,1.53515625,3.70703125,1.53515625,2.890625,0,5.2421875-2.3515625,5.2421875-5.2421875,0-1.40039062-.54492188-2.71679688-1.53515625-3.70703125Z" style="fill:#45a9f4; stroke-width:0px;"/><path d="m52.70703125,43.29296875l-3-3c-.390625-.390625-1.0234375-.390625-1.4140625,0l-8,8c-.390625.390625-.390625,1.0234375,0,1.4140625l3,3c.1953125.1953125.45117188.29296875.70703125.29296875s.51171875-.09765625.70703125-.29296875l8-8c.390625-.390625.390625-1.0234375,0-1.4140625Z" style="fill:#64c4ff; stroke-width:0px;"/><path d="m57,0h-26c-2.20556641,0-4,1.79394531-4,4v14c0,2.20605469,1.79443359,4,4,4h1v4c0,.38769531.22460938.74121094.57568359.90527344.13574219.06347656.28027344.09472656.42431641.09472656.22949219,0,.45703125-.07910156.640625-.23144531l5.72167969-4.76855469h17.63769531c2.20605469,0,4-1.79394531,4-4V4c0-2.20605469-1.79394531-4-4-4Z" style="fill:#ffe094; stroke-width:0px;"/><path d="m37,8c.55273438,0,1-.44726562,1-1s-.44726562-1-1-1h-4c-.55224609,0-1,.44726562-1,1v8c0,.55273438.44775391,1,1,1,.55273438,0,1-.44726562,1-1v-2h3c.55273438,0,1-.44726562,1-1s-.44726562-1-1-1h-3v-3h3Z" style="fill:#ffb666; stroke-width:0px;"/><path d="m43,6c-1.65429688,0-3,1.34570312-3,3v6c0,.55273438.44726562,1,1,1s1-.44726562,1-1v-2h2v2c0,.55273438.44726562,1,1,1s1-.44726562,1-1v-6c0-1.65429688-1.34570312-3-3-3Zm-1,5v-2c0-.55175781.44824219-1,1-1s1,.44824219,1,1v2h-2Z" style="fill:#ffb666; stroke-width:0px;"/><path d="m56,10c0-2.20605469-1.79394531-4-4-4s-4,1.79394531-4,4v2c0,2.20605469,1.79394531,4,4,4,.73968506,0,1.42437744-.21539307,2.01928711-.56665039l.27368164.27368164c.1953125.1953125.45117188.29296875.70703125.29296875s.51171875-.09765625.70703125-.29296875c.390625-.390625.390625-1.0234375,0-1.4140625l-.27368164-.27368164c.35125732-.59490967.56665039-1.27960205.56665039-2.01928711v-2Zm-3.29296875,1.29296875c-.390625-.390625-1.0234375-.390625-1.4140625,0s-.390625,1.0234375,0,1.4140625l1.21838379,1.21838379c-.16424561.04376221-.33355713.07458496-.51135254.07458496-1.10253906,0-2-.89746094-2-2v-2c0-1.10253906.89746094-2,2-2s2,.89746094,2,2v2c0,.17779541-.03082275.34710693-.07458496.51135254l-1.21838379-1.21838379Z" style="fill:#ffb666; stroke-width:0px;"/><path d="m56,37c-.55273438,0-1-.44726562-1-1,0-1.41699219.84472656-2.68359375,2.15234375-3.22851562,1.37695312-.57421875,2.10351562-2.00976562,1.765625-3.49121094-.24511719-1.0703125-1.12792969-1.953125-2.19824219-2.19824219-.93945312-.21386719-1.85839844-.01171875-2.58789062.5703125-.71972656.57421875-1.13183594,1.4296875-1.13183594,2.34765625,0,.55273438-.44726562,1-1,1s-1-.44726562-1-1c0-1.53027344.68652344-2.95605469,1.88476562-3.91113281,1.19726562-.95507812,2.75683594-1.30566406,4.28027344-.95605469,1.83105469.41796875,3.28417969,1.87109375,3.70214844,3.70214844.54980469,2.41015625-.68945312,4.84179688-2.9453125,5.78222656-.56054688.23339844-.921875.77636719-.921875,1.3828125,0,.55273438-.44726562,1-1,1Z" style="fill:#64c4ff; stroke-width:0px;"/><circle cx="56" cy="40" r="1" style="fill:#64c4ff; stroke-width:0px;"/><path d="m4,9.95605469c-.55224609,0-1-.40332031-1-.95605469v-.08691406c0-1.30078125.73388672-2.48242188,1.96289062-3.16015625.76318359-.41992188,1.15722656-1.25390625,1.00439453-2.12402344-.13818359-.78613281-.80957031-1.45800781-1.59619141-1.59570312-.60693359-.10839844-1.19482422.046875-1.65625.43457031-.45410156.38085938-.71484375.93945312-.71484375,1.53222656,0,.55273438-.44775391,1-1,1s-1-.44726562-1-1C0,2.81542969.52099609,1.69824219,1.42871094.93554688S3.53417969-.14355469,4.71679688.0625c1.61279297.28320312,2.93701172,1.60742188,3.22021484,3.22070312.29833984,1.69824219-.50878906,3.39550781-2.00878906,4.22167969-.58105469.3203125-.92822266.84667969-.92822266,1.40820312,0,.55273438-.44775391,1.04296875-1,1.04296875Z" style="fill:#64c4ff; stroke-width:0px;"/><circle cx="4" cy="13" r="1" style="fill:#64c4ff; stroke-width:0px;"/><path d="m22,29.95605469c-.55224609,0-1-.40332031-1-.95605469v-.08691406c0-1.30078125.73388672-2.48242188,1.96289062-3.16015625.76318359-.41992188,1.15722656-1.25390625,1.00439453-2.12402344-.13818359-.78613281-.80957031-1.45800781-1.59619141-1.59570312-.60742188-.109375-1.1953125.046875-1.65625.43457031-.45410156.38085938-.71484375.93945312-.71484375,1.53222656,0,.55273438-.44775391,1-1,1s-1-.44726562-1-1c0-1.18457031.52099609-2.30175781,1.42871094-3.06445312.90722656-.76171875,2.10742188-1.07714844,3.28808594-.87304688,1.61279297.28320312,2.93701172,1.60742188,3.22021484,3.22070312.29833984,1.69824219-.50878906,3.39550781-2.00878906,4.22167969-.58105469.3203125-.92822266.84667969-.92822266,1.40820312,0,.55273438-.44775391,1.04296875-1,1.04296875Z" style="fill:#45a9f4; stroke-width:0px;"/><circle cx="22" cy="33" r="1" style="fill:#45a9f4; stroke-width:0px;"/></g></svg>