<?xml version="1.0" encoding="UTF-8"?><svg id="Layer_1" xmlns="http://www.w3.org/2000/svg" viewBox="0 0 64 64"><g id="Talk"><path d="m45,63v-23c0-2.75683594,2.24316406-5,5-5h8c2.75683594,0,5,2.24316406,5,5v23h-18Z" style="fill:#64c4ff; stroke-width:0px;"/><circle cx="54" cy="26" r="9" style="fill:#45a9f4; stroke-width:0px;"/><path d="m1,63v-23c0-2.75683594,2.24316406-5,5-5h8c2.75683594,0,5,2.24316406,5,5v23H1Z" style="fill:#64c4ff; stroke-width:0px;"/><circle cx="10" cy="26" r="9" style="fill:#45a9f4; stroke-width:0px;"/><rect x="15" y="56" width="34" height="7" style="fill:#ffcd7d; stroke-width:0px;"/><path d="m23.00097656,21.00097656-.00097656-4.00097656h-2c-1.10253906,0-2-.89746094-2-2V3c0-1.10253906.89746094-2,2-2h22c1.10253906,0,2,.89746094,2,2v12c0,1.10253906-.89746094,2-2,2h-2v4l-5-4h-8l-5,4v-4Z" style="fill:#ffe094; stroke-width:0px;"/><rect x="12" y="50" width="40" height="6" style="fill:#ffe094; stroke-width:0px;"/><path d="m53.57287598,38.20397949l-6.98999023,1.06787109-7.25201416-5.32989502c-1.33508301-.98126221-3.21276855-.69439697-4.19396973.64068604h-.00006104c-.98120117,1.33508301-.69433594,3.21276855.64074707,4.19396973l9.66937256,7.10656738,9.78594971-1.49499512-1.66003418-6.1842041Z" style="fill:#64c4ff; stroke-width:0px;"/><path d="m26,44h-9l-5-5-5,4,7,7h12c1.65686035,0,3-1.34313965,3-3s-1.34313965-3-3-3Z" style="fill:#64c4ff; stroke-width:0px;"/><path d="m59.65649414,34.23779297c2.62017822-1.80493164,4.34350586-4.82281494,4.34350586-8.23779297,0-5.51367188-4.48632812-10-10-10s-10,4.48632812-10,10c0,3.41864014,1.72680664,6.43969727,4.35174561,8.24395752-1.41308594.40686035-2.62969971,1.3237915-3.41790771,2.57458496l-5.01000977-3.68182373c-1.78027344-1.30664062-4.28613281-.92285156-5.59277344.85351562-.6328125.86132812-.89257812,1.91699219-.73144531,2.97363281.16210938,1.05566406.72460938,1.98632812,1.5859375,2.61816406l8.81445312,6.4777832v2.94018555h-14.55621338c.34442139-.59069824.55621338-1.26812744.55621338-2,0-2.20605469-1.79394531-4-4-4h-6v-3c0-2.73352051-1.83905029-5.04101562-4.34350586-5.76220703,2.62017822-1.80493164,4.34350586-4.82281494,4.34350586-8.23779297,0-5.51367188-4.48632812-10-10-10S0,20.48632812,0,26c0,3.41497803,1.72332764,6.43286133,4.34350586,8.23779297-2.50445557.72119141-4.34350586,3.02868652-4.34350586,5.76220703v23c0,.55273438.44726562,1,1,1h62c.55273438,0,1-.44726562,1-1v-23c0-2.73352051-1.83905029-5.04101562-4.34350586-5.76220703Zm-13.65649414-8.23779297c0-4.41113281,3.58886719-8,8-8s8,3.58886719,8,8-3.58886719,8-8,8-8-3.58886719-8-8ZM13,55v-4h38v4H13ZM2,26c0-4.41113281,3.58886719-8,8-8s8,3.58886719,8,8-3.58886719,8-8,8-8-3.58886719-8-8Zm0,14c0-2.20605469,1.79394531-4,4-4h8c2.20605469,0,4,1.79394531,4,4v3h-.5859375l-4.70703125-4.70703125c-.390625-.390625-1.0234375-.390625-1.4140625,0s-.390625,1.0234375,0,1.4140625l5,5c.1875.1875.44140625.29296875.70703125.29296875h9c1.10253906,0,2,.89746094,2,2s-.89746094,2-2,2h-11.5859375l-6.70703125-6.70703125c-.390625-.390625-1.0234375-.390625-1.4140625,0s-.390625,1.0234375,0,1.4140625l5.36242676,5.36242676c-.38104248.14105225-.65539551.50012207-.65539551.93054199v6c0,.55273438.44726562,1,1,1h2v5H2v-22Zm14,22v-5h32v5H16Zm46,0h-12v-5h2c.55273438,0,1-.44726562,1-1v-6c0-.55273438-.44726562-1-1-1h-6v-2.19018555l9.38476562-1.43286133c.54589844-.08300781.92089844-.59277344.83691406-1.13964844-.08300781-.54492188-.58398438-.92382812-1.13964844-.83691406l-9.37597656,1.43164062-9.33691406-6.86132812c-.4296875-.31640625-.71191406-.78125-.79199219-1.30957031-.08105469-.52734375.04882812-1.05566406.36523438-1.48535156.31640625-.43066406.78222656-.71289062,1.30957031-.79296875.53125-.08105469,1.05664062.04882812,1.48730469.36523438l7.25195312,5.32910156c.21191406.15722656.47558594.22460938.74316406.18261719l6.99023438-1.06738281c.54589844-.08300781.92089844-.59375.83691406-1.13964844-.08300781-.54492188-.58496094-.91992188-1.13964844-.83691406l-6.58007812,1.00488281-.29870605-.21954346c.70709229-1.21813965,2.01696777-2.00115967,3.45690918-2.00115967h8c2.20605469,0,4,1.79394531,4,4v22Z" style="fill:#393e4c; stroke-width:0px;"/><path d="m50,23c-.55273438,0-1,.44726562-1,1v1c0,.55273438.44726562,1,1,1s1-.44726562,1-1v-1c0-.55273438-.44726562-1-1-1Z" style="fill:#393e4c; stroke-width:0px;"/><path d="m14,26c.55273438,0,1-.44726562,1-1v-1c0-.55273438-.44726562-1-1-1s-1,.44726562-1,1v1c0,.55273438.44726562,1,1,1Z" style="fill:#393e4c; stroke-width:0px;"/><path d="m21,18h1v3c0,.38476562.22070312.734375.56640625.90136719.34765625.16699219.7578125.12109375,1.05859375-.12011719l4.72558594-3.78125h7.29882812l4.72558594,3.78125c.18066406.14453125.40234375.21875.625.21875.14746094,0,.29589844-.03222656.43359375-.09863281.34570312-.16699219.56640625-.51660156.56640625-.90136719v-3h1c1.65429688,0,3-1.34570312,3-3V3c0-1.65429688-1.34570312-3-3-3h-22c-1.65429688,0-3,1.34570312-3,3v12c0,1.65429688,1.34570312,3,3,3Zm-1-15c0-.55175781.44824219-1,1-1h22c.55175781,0,1,.44824219,1,1v12c0,.55175781-.44824219,1-1,1h-2c-.55273438,0-1,.44726562-1,1v1.91894531l-3.375-2.70019531c-.17773438-.14160156-.39746094-.21875-.625-.21875h-8c-.22753906,0-.44726562.07714844-.625.21875l-3.375,2.70019531v-1.91894531c0-.55273438-.44726562-1-1-1h-2c-.55175781,0-1-.44824219-1-1V3Z" style="fill:#393e4c; stroke-width:0px;"/><circle cx="26" cy="9" r="1" style="fill:#393e4c; stroke-width:0px;"/><circle cx="32" cy="9" r="1" style="fill:#393e4c; stroke-width:0px;"/><circle cx="38" cy="9" r="1" style="fill:#393e4c; stroke-width:0px;"/></g></svg>