<?xml version="1.0" encoding="UTF-8"?><svg id="Layer_1" xmlns="http://www.w3.org/2000/svg" viewBox="0 0 64 64"><g id="FAQ"><path d="m46.59002686,41.16998291l-1.85003662-1.84997559c-1.48999023,2.08996582-3.33001709,3.92999268-5.41998291,5.41998291l1.84997559,1.84997559,5.42004395-5.41998291Z" style="stroke-width:0px;"/><path d="m47,26c0-1.36999512-.13000488-2.70001221-.39001465-4h-4.08996582c.30999756,1.27996826.47998047,2.61999512.47998047,4,0,9.36999512-7.63000488,17-17,17s-17-7.63000488-17-17,7.63000488-17,17-17c.34002686,0,.66998291.01000977,1,.02996826v-4c-.33001709-.0199585-.65997314-.02996826-1-.02996826C14.41998291,5,5,14.41998291,5,26c0,11.57995605,9.41998291,21,21,21s21-9.42004395,21-21Z" style="stroke-width:0px;"/><path d="m62.46002197,55.04998779l-8.63000488-8.64001465-7.42004395,7.41998291,8.64001465,8.63000488c.98999023,1,2.30999756,1.54003906,3.71002197,1.54003906,2.89001465,0,5.23999023-2.35003662,5.23999023-5.23999023,0-1.40002441-.53997803-2.72003174-1.53997803-3.71002197Z" style="stroke-width:0px;"/><path d="m52.70703125,43.29296875l-2-2c-.390625-.390625-1.0234375-.390625-1.4140625,0l-8,8c-.390625.390625-.390625,1.0234375,0,1.4140625l2,2c.1953125.1953125.45117188.29296875.70703125.29296875s.51171875-.09765625.70703125-.29296875l8-8c.390625-.390625.390625-1.0234375,0-1.4140625Z" style="stroke-width:0px;"/><path d="m53,13c.17779541,0,.34710693-.03082275.51135254-.07458496l-1.21838379-1.21838379c-.390625-.390625-.390625-1.0234375,0-1.4140625s1.0234375-.390625,1.4140625,0l1.21838379,1.21838379c.04376221-.16424561.07458496-.33355713.07458496-.51135254v-2c0-1.10253906-.89746094-2-2-2s-2,.89746094-2,2v2c0,1.10253906.89746094,2,2,2Z" style="stroke-width:0px;"/><path d="m45,8c0-.55175781-.44824219-1-1-1s-1,.44824219-1,1v2h2v-2Z" style="stroke-width:0px;"/><path d="m31,20h2c.54998779,0,1,.45001221,1,1v2.86999512l4.35998535-3.64001465c.17999268-.15002441.41003418-.22998047.64001465-.22998047h20c1.09997559,0,2-.90002441,2-2V2c0-1.10003662-.90002441-2-2-2h-28c-1.09997559,0-2,.89996338-2,2v16c0,1.09997559.90002441,2,2,2Zm18-11c0-2.20605469,1.79394531-4,4-4s4,1.79394531,4,4v2c0,.73968506-.21539307,1.42437744-.56665039,2.01928711l.27368164.27368164c.390625.390625.390625,1.0234375,0,1.4140625-.1953125.1953125-.45117188.29296875-.70703125.29296875s-.51171875-.09765625-.70703125-.29296875l-.27368164-.27368164c-.59490967.35125732-1.27960205.56665039-2.01928711.56665039-2.20605469,0-4-1.79394531-4-4v-2Zm-8-1c0-1.65429688,1.34570312-3,3-3s3,1.34570312,3,3v6c0,.55273438-.44726562,1-1,1s-1-.44726562-1-1v-2h-2v2c0,.55273438-.44726562,1-1,1s-1-.44726562-1-1v-6Zm-8-2c0-.55273438.44726562-1,1-1h4c.55273438,0,1,.44726562,1,1s-.44726562,1-1,1h-3v3h3c.55273438,0,1,.44726562,1,1s-.44726562,1-1,1h-3v2c0,.55273438-.44726562,1-1,1s-1-.44726562-1-1V6Z" style="stroke-width:0px;"/><path d="m57.921875,34.6171875c2.25585938-.94042969,3.49511719-3.37207031,2.9453125-5.78222656-.41796875-1.83105469-1.87109375-3.28417969-3.70214844-3.70214844-1.5234375-.34960938-3.08300781.00097656-4.28027344.95605469-1.19824219.95507812-1.88476562,2.38085938-1.88476562,3.91113281,0,.55273438.44726562,1,1,1s1-.44726562,1-1c0-.91796875.41210938-1.7734375,1.13183594-2.34765625.72949219-.58203125,1.6484375-.78417969,2.58789062-.5703125,1.0703125.24511719,1.953125,1.12792969,2.19824219,2.19824219.33789062,1.48144531-.38867188,2.91699219-1.765625,3.49121094-1.30761719.54492188-2.15234375,1.81152344-2.15234375,3.22851562,0,.55273438.44726562,1,1,1s1-.44726562,1-1c0-.60644531.36132812-1.14941406.921875-1.3828125Z" style="stroke-width:0px;"/><circle cx="56" cy="40" r="1" style="stroke-width:0px;"/><path d="m4.37109375,2.03320312c.78662109.13769531,1.45800781.80957031,1.59619141,1.59570312.15283203.87011719-.24121094,1.70410156-1.00439453,2.12402344-1.22900391.67773438-1.96289062,1.859375-1.96289062,3.16015625v.08691406c0,.55273438.44775391.95605469,1,.95605469s1-.49023438,1-1.04296875c0-.56152344.34716797-1.08789062.92822266-1.40820312,1.5-.82617188,2.30712891-2.5234375,2.00878906-4.22167969C7.65380859,1.66992188,6.32958984.34570312,4.71679688.0625c-1.18261719-.20605469-2.38037109.11035156-3.28808594.87304688s-1.42871094,1.87988281-1.42871094,3.06445312c0,.55273438.44775391,1,1,1s1-.44726562,1-1c0-.59277344.26074219-1.15136719.71484375-1.53222656.46142578-.38769531,1.04931641-.54296875,1.65625-.43457031Z" style="stroke-width:0px;"/><circle cx="4" cy="13" r="1" style="stroke-width:0px;"/><path d="m27,11.03997803c-.33001709-.02996826-.65997314-.03997803-1-.03997803-8.27001953,0-15,6.72998047-15,15,0,8.2699585,6.72998047,15,15,15s15-6.7300415,15-15c0-1.38000488-.19000244-2.72003174-.53997803-4h-1.10003662l-5.7199707,4.7699585c-.17999268.15002441-.41003418.2300415-.64001465.2300415-.14001465,0-.28997803-.0300293-.41998291-.09002686-.36004639-.16998291-.58001709-.5199585-.58001709-.90997314v-4h-1c-2.21002197,0-4-1.79003906-4-4v-6.96002197Zm-5,22.96002197c-.54998779,0-1-.45001221-1-1s.45001221-1,1-1,1,.45001221,1,1-.45001221,1-1,1Zm1.92999268-6.5c-.58001709.32995605-.92999268.84997559-.92999268,1.40997314s-.45001221,1.04998779-1,1.04998779-1-.40997314-1-.95996094v-.09002686c0-1.29998779.72998047-2.47998047,1.96002197-3.15997314.7699585-.42004395,1.15997314-1.25,1.00994873-2.11999512-.13995361-.79003906-.80999756-1.46002197-1.59997559-1.60003662-.60998535-.10998535-1.19000244.04998779-1.65997314.44000244-.45001221.38000488-.71002197.94000244-.71002197,1.5300293,0,.54998779-.45001221,1-1,1s-1-.45001221-1-1c0-1.17999268.52001953-2.29998779,1.42999268-3.05999756.91003418-.77001953,2.10998535-1.08001709,3.28997803-.88000488,1.61004639.28997803,2.93005371,1.60998535,3.22003174,3.2199707.29998779,1.70001221-.51000977,3.40002441-2.01000977,4.22003174Z" style="stroke-width:0px;"/></g></svg>