<?xml version="1.0" encoding="UTF-8"?><svg id="Layer_1" xmlns="http://www.w3.org/2000/svg" viewBox="0 0 64 64"><g id="Customer_Service"><path d="m1,63v-9.64257812c0-3.25390625,1.94482422-6.15820312,4.95410156-7.39746094l12.04589844-4.95996094h12l12.04589844,4.95996094c3.00927734,1.23925781,4.95410156,4.14355469,4.95410156,7.39746094v9.64257812H1Z" style="fill:#d9ecff; stroke-width:0px;"/><path d="m40,33v1h-2v-1c0-.54998779.45001221-1,1-1s1,.45001221,1,1Z" style="fill:#45a9f4; stroke-width:0px;"/><path d="m8,24c-1.10302734,0-2,.89746094-2,2v6c0,1.10253906.89697266,2,2,2h8l-3-10h-5Z" style="fill:#64c4ff; stroke-width:0px;"/><path d="m40,24h-5l-2,10h7c1.10302734,0,2-.89746094,2-2v-6c0-1.10253906-.89697266-2-2-2Z" style="fill:#64c4ff; stroke-width:0px;"/><path d="m29,40h-10c-.55224609,0-1,.44726562-1,1v3c0,3.30859375,2.69140625,6,6,6s6-2.69140625,6-6v-3c0-.55273438-.44775391-1-1-1Z" style="fill:#f9c7c0; stroke-width:0px;"/><polygon points="28.0012207 63 26 55 27 55 29 50 24 49 19 50 21 55 22 55 20.00128174 63 28.0012207 63" style="fill:#45a9f4; stroke-width:0px;"/><polygon points="29 50 27 55 21 55 19 50 24 49 29 50" style="fill:#64c4ff; stroke-width:0px;"/><polygon points="30.17971851 39.1124096 24.000005 49 32 52.99998133 30.72950269 39.02463211 30.17971851 39.1124096" style="fill:#b9d8f9; stroke-width:0px;"/><polygon points="17.82028149 39.1124096 23.999995 49 16 52.99998133 17.27049731 39.0246321 17.82028149 39.1124096" style="fill:#b9d8f9; stroke-width:0px;"/><path d="m60,0h-14c-2.20556641,0-4,1.79394531-4,4v12c0,2.20605469,1.79443359,4,4,4v3c0,.38476562.22021484.734375.56689453.90136719.13769531.06640625.28564453.09863281.43310547.09863281.22265625,0,.44384766-.07421875.62451172-.21875l4.72607422-3.78125h7.64941406c2.20556641,0,4-1.79394531,4-4V4c0-2.20605469-1.79443359-4-4-4Z" style="fill:#ffe094; stroke-width:0px;"/><path d="m13,19v13c0,6.06542969,4.93457031,11,11,11s11-4.93457031,11-11v-13H13Z" style="fill:#ffded4; stroke-width:0px;"/><path d="m24,39c-2.20556641,0-4-1.79394531-4-4v-2h8v2c0,2.20605469-1.79443359,4-4,4Z" style="fill:#f9c7c0; stroke-width:0px;"/><path d="m40,34v5c0,.54998779-.45001221,1-1,1h-9c-.54998779,0-1-.45001221-1-1s.45001221-1,1-1h8v-4h2Z" style="fill:#45a9f4; stroke-width:0px;"/><path d="m32.83105469,24c-3.09570312,0-6.10546875-1.45019531-8.05078125-3.87792969l-.78027344-.97460938-.78027344.97460938c-1.9453125,2.42773438-4.95507812,3.87792969-8.05078125,3.87792969h-5.16894531v-3c0-7.71972656,6.28027344-14,14-14s14,6.28027344,14,14v3h-5.16894531Z" style="fill:#5b6675; stroke-width:0px;"/><path d="m42.43066406,45.03515625l-10.28515625-4.2355957c.2722168-.25183105.52978516-.52093506.78015137-.79956055h6.07434082c.55224609,0,1-.44726562,1-1v-4c1.65429688,0,3-1.34570312,3-3v-6c0-1.65429688-1.34570312-3-3-3h-1v-8c0-8.27148438-6.72900391-15-15-15s-15,6.72851562-15,15v8h-1c-1.65429688,0-3,1.34570312-3,3v6c0,1.65429688,1.34570312,3,3,3h4.39489746c.58453369,2.25848389,1.8069458,4.25671387,3.46936035,5.79553223l-10.29443359,4.23962402c-3.38378906,1.39257812-5.56982422,4.66015625-5.56982422,8.32519531v9.63964844c0,.55273438.44775391,1,1,1h46c.55224609,0,1-.44726562,1-1v-9.63964844c0-3.66503906-2.18603516-6.93261719-5.56933594-8.32519531Zm-16.10791016,8.96484375h-4.64550781l-.90686035-2.26702881,3.22961426-1.61480713,3.22961426,1.61480713-.90686035,2.26702881Zm-2.32275391-6.88964844l-2.05865479-3.29998779c.67034912.11657715,1.35546875.18963623,2.05865479.18963623.69915771,0,1.38580322-.07781982,2.06225586-.19537354l-2.06225586,3.3057251Zm-6.02832031-4.75115967c.33874512.19787598.68713379.37927246,1.0458374.54388428l3.55230713,5.69360352-5.41162109,2.70605469.81347656-8.94354248Zm7.45849609,6.23748779l3.54418945-5.68066406c.36096191-.16442871.71124268-.35046387,1.05456543-.55023193l.81286621,8.93695068-5.41162109-2.70605469Zm15.56982422-22.59667969v6c0,.55175781-.44873047,1-1,1h-4.04620361c.02764893-.33190918.04620361-.66503906.04620361-1v-7h4c.55126953,0,1,.44824219,1,1ZM24,2c6.61132812,0,12.0737915,4.96447754,12.88470459,11.35882568-2.61798096-4.39727783-7.40606689-7.35882568-12.88470459-7.35882568s-10.26672363,2.96154785-12.88470459,7.35882568c.81091309-6.39434814,6.27337646-11.35882568,12.88470459-11.35882568Zm-13,19c0-7.16796875,5.83154297-13,13-13s13,5.83203125,13,13v2h-4.16894531c-3.24707031,0-6.30224609-1.72949219-7.97363281-4.51464844-.18066406-.30078125-.50634766-.48535156-.85742188-.48535156s-.67675781.18457031-.85742188.48535156c-1.67138672,2.78515625-4.7265625,4.51464844-7.97363281,4.51464844h-4.16894531v-2Zm-3,12c-.55126953,0-1-.44824219-1-1v-6c0-.55175781.44873047-1,1-1h4v7c0,.33752441.02319336.66943359.05065918,1h-4.05065918Zm6-1v-7h1.16894531c3.44140625,0,6.70556641-1.59960938,8.83105469-4.25292969,2.12548828,2.65332031,5.38964844,4.25292969,8.83105469,4.25292969h1.16894531v7c0,1.24414062-.22949219,2.46875-.68261719,3.63867188-.19921875.515625.05664062,1.09472656.57177734,1.29394531.11865234.04589844.24072266.06738281.36083984.06738281.40087891,0,.77929688-.2421875.93261719-.63867188.1729126-.44702148.30859375-.90246582.42687988-1.36132812h2.39050293v3h-8c-.55224609,0-1,.44726562-1,1,0,.55023193.44421387.99456787.99298096.99859619-1.71514893,1.28552246-3.80413818,2.00140381-5.99298096,2.00140381-5.51416016,0-10-4.48632812-10-10ZM2,53.36035156c0-2.8515625,1.69970703-5.39257812,4.33105469-6.47558594l9.5791626-3.94488525-.90631104,9.96929932c-.03271484.36132812.1328125.71191406.43212891.91699219.29353932.19964057.6777748.23393736,1.01123047.06835938l2.52783203-1.26391602,1.09619141,2.74047852c.11755371.29309082.36431885.50488281.65820312.58789062l-1.51025391,6.04101562H2v-8.63964844Zm19.28076172,8.63964844l1.5-6h2.43847656l1.5,6h-5.43847656Zm24.71923828,0h-17.21923828l-1.51025391-6.04101562c.29388428-.08300781.54064941-.2947998.65820312-.58789062l1.09619141-2.74047852,2.52783203,1.26391602c.33344453.16557246.71766707.13129757,1.01123047-.06835938.29931641-.20507812.46484375-.55566406.43212891-.91699219l-.90631104-9.96929932,9.57965088,3.94488525c2.63085938,1.08300781,4.33056641,3.62402344,4.33056641,6.47558594v8.63964844Z" style="fill:#393e4c; stroke-width:0px;"/><path d="m24,40c2.75683594,0,5-2.24316406,5-5v-2c0-.55273438-.44775391-1-1-1h-8c-.55224609,0-1,.44726562-1,1v2c0,2.75683594,2.24316406,5,5,5Zm-3-6h6v1c0,1.65429688-1.34570312,3-3,3s-3-1.34570312-3-3v-1Z" style="fill:#393e4c; stroke-width:0px;"/><path d="m60,0h-14c-2.20556641,0-4,1.79394531-4,4v12c0,2.20605469,1.79443359,4,4,4v3c0,.38476562.22021484.734375.56689453.90136719.13769531.06640625.28564453.09863281.43310547.09863281.22265625,0,.44384766-.07421875.62451172-.21875l4.72607422-3.78125h7.64941406c2.20556641,0,4-1.79394531,4-4V4c0-2.20605469-1.79443359-4-4-4Zm2,16c0,1.10253906-.89697266,2-2,2h-8c-.22705078,0-.44726562.07714844-.62451172.21875l-3.37548828,2.70019531v-1.91894531c0-.55273438-.44775391-1-1-1h-1c-1.10302734,0-2-.89746094-2-2V4c0-1.10253906.89697266-2,2-2h14c1.10302734,0,2,.89746094,2,2v12Z" style="fill:#393e4c; stroke-width:0px;"/><path d="m47,12c.55224609,0,1-.44726562,1-1v-2h2v2c0,.55273438.44775391,1,1,1s1-.44726562,1-1v-6c0-.55273438-.44775391-1-1-1s-1,.44726562-1,1v2h-2v-2c0-.55273438-.44775391-1-1-1s-1,.44726562-1,1v6c0,.55273438.44775391,1,1,1Z" style="fill:#393e4c; stroke-width:0px;"/><path d="m55,12c.55224609,0,1-.44726562,1-1v-3c0-.55273438-.44775391-1-1-1s-1,.44726562-1,1v3c0,.55273438.44775391,1,1,1Z" style="fill:#393e4c; stroke-width:0px;"/><circle cx="55" cy="5" r="1" style="fill:#393e4c; stroke-width:0px;"/><path d="m59,14h-12c-.55224609,0-1,.44726562-1,1s.44775391,1,1,1h12c.55224609,0,1-.44726562,1-1s-.44775391-1-1-1Z" style="fill:#393e4c; stroke-width:0px;"/></g></svg>