<?xml version="1.0" encoding="UTF-8"?><svg id="Layer_1" xmlns="http://www.w3.org/2000/svg" viewBox="0 0 64 64"><g id="Video_Conference"><path d="m55,8H11c-3.3137085,0-6,2.6862915-6,6v42h56V14c0-3.3137085-2.6862915-6-6-6Z" style="fill:#d9ecff; stroke-width:0px;"/><path d="m63,54H3c-.55224609,0-1,.44726562-1,1v4c0,2.75683594,2.24316406,5,5,5h52c2.75683594,0,5-2.24316406,5-5v-4c0-.55273438-.44775391-1-1-1Z" style="fill:#64c4ff; stroke-width:0px;"/><path d="m24,54v3c0,1.65429688,1.34570312,3,3,3h12c1.65429688,0,3-1.34570312,3-3v-3h-18Z" style="fill:#45a9f4; stroke-width:0px;"/><path d="m54,12H12c-1.65429688,0-3,1.34570312-3,3v34c0,.55273438.44775391,1,1,1h46c.55224609,0,1-.44726562,1-1V15c0-1.65429688-1.34570312-3-3-3Z" style="fill:#b9d8f9; stroke-width:0px;"/><path d="m18,30c-1.65686035,0-3,1.34313965-3,3s1.34313965,3,3,3h2v-6h-2Z" style="fill:#f9c7c0; stroke-width:0px;"/><path d="m34,30h-2v6h2c1.65686035,0,3-1.34313965,3-3s-1.34313965-3-3-3Z" style="fill:#f9c7c0; stroke-width:0px;"/><path d="m10.81964111,50h30.36071777l-.60028076-3.60058594c-.42724609-2.56445312-2.22460938-4.66796875-4.69091797-5.49023438l-5.57275391-1.85742188c-.10205078-.03417969-.20898438-.05175781-.31640625-.05175781h-8c-.10742188,0-.21435547.01757812-.31640625.05175781l-5.57275391,1.85742188c-2.46630859.82226562-4.26367188,2.92578125-4.69091797,5.49023438l-.60028076,3.60058594Z" style="fill:#64c4ff; stroke-width:0px;"/><path d="m27,50v-5c0-.55273438-.44775391-1-1-1s-1,.44726562-1,1v5h2Z" style="fill:#45a9f4; stroke-width:0px;"/><path d="m29,39h-6c-.55224609,0-1,.44726562-1,1v2c0,2.20605469,1.79443359,4,4,4s4-1.79394531,4-4v-2c0-.55273438-.44775391-1-1-1Z" style="fill:#f9c7c0; stroke-width:0px;"/><path d="m29.36351219,40.55849636l-.000007.000003c-2.14786749.92051436-4.57914889.92051436-6.72701638,0l-.000007-.000003c-2.20610341-.94547261-3.63648481-3.11470155-3.63648481-5.51487043v-8.04362292s14,0,14,0v8.04362292c0,2.40016889-1.4303814,4.56939783-3.63648481,5.51487044Z" style="fill:#ffded4; stroke-width:0px;"/><path d="m26,17c-6.06542969,0-11,4.93457031-11,11v2c0,.55273438.44775391,1,1,1h3.52783203c2.57177734,0,4.93115234-1.17089844,6.47216797-3.13769531,1.54101562,1.96679688,3.90039062,3.13769531,6.47216797,3.13769531h3.52783203c.55224609,0,1-.44726562,1-1v-2c0-6.06542969-4.93457031-11-11-11Z" style="fill:#5b6675; stroke-width:0px;"/><path d="m26,37.46972656c-.84082031,0-1.68115234-.19238281-2.44726562-.57519531-.49414062-.24707031-.69433594-.84765625-.44726562-1.34179688.24707031-.49511719.84863281-.69238281,1.34179688-.44726562.97265625.48632812,2.1328125.48632812,3.10546875,0,.49365234-.24609375,1.09423828-.04785156,1.34179688.44726562.24707031.49414062.046875,1.09472656-.44726562,1.34179688-.76611328.3828125-1.60644531.57519531-2.44726562.57519531Z" style="fill:#f9c7c0; stroke-width:0px;"/><rect x="39" y="16" width="14" height="14" rx="1" ry="1" style="fill:#64c4ff; stroke-width:0px;"/><path d="m46,24c-2.75683594,0-5,2.24316406-5,5v1h10v-1c0-2.75683594-2.24316406-5-5-5Z" style="fill:#ffcd7d; stroke-width:0px;"/><circle cx="46" cy="23" r="3" style="fill:#ffb666; stroke-width:0px;"/><path d="m18,0H4C1.79443359,0,0,1.79394531,0,4v8c0,2.20605469,1.79443359,4,4,4h7.66650391l3.73339844,2.79980469c.17675781.1328125.38769531.20019531.60009766.20019531.15234375,0,.30566406-.03515625.44726562-.10546875.33886719-.16992188.55273438-.515625.55273438-.89453125v-2h1c2.20556641,0,4-1.79394531,4-4V4c0-2.20605469-1.79443359-4-4-4Z" style="fill:#ffe094; stroke-width:0px;"/><circle cx="11" cy="8" r="1" style="fill:#ffb666; stroke-width:0px;"/><circle cx="6" cy="8" r="1" style="fill:#ffb666; stroke-width:0px;"/><circle cx="16" cy="8" r="1" style="fill:#ffb666; stroke-width:0px;"/></g></svg>