<?xml version="1.0" encoding="UTF-8"?><svg id="Layer_1" xmlns="http://www.w3.org/2000/svg" viewBox="0 0 64 64"><g id="Feedback"><path d="m38,29c0-1.2265625.56323242-2.31005859,1.4317627-3.04364014-.14465332.01263428-.28393555.04364014-.4317627.04364014-2.75683594,0-5-2.24316406-5-5v-1c0-.55273438.44726562-1,1-1h8c.55273438,0,1,.44726562,1,1v1c0,1.64331055-.80749512,3.09155273-2.03527832,4.00354004.01202393-.00012207.02319336-.00354004.03527832-.00354004,1.80999756,0,3.34002686,1.20996094,3.83001709,2.85998535,3.11999512-2.16998291,5.16998291-5.7800293,5.16998291-9.85998535,0-6.61999512-5.38000488-12-12-12s-12,5.38000488-12,12c0,6.27996826,4.84997559,11.45001221,11,11.95996094v-.95996094Zm2.29296875-13.70703125l2-2c.390625-.390625,1.0234375-.390625,1.4140625,0l2,2c.390625.390625.390625,1.0234375,0,1.4140625-.1953125.1953125-.45117188.29296875-.70703125.29296875s-.51171875-.09765625-.70703125-.29296875l-1.29296875-1.29296875-1.29296875,1.29296875c-.390625.390625-1.0234375.390625-1.4140625,0s-.390625-1.0234375,0-1.4140625Zm-8,1.4140625c-.390625-.390625-.390625-1.0234375,0-1.4140625l2-2c.390625-.390625,1.0234375-.390625,1.4140625,0l2,2c.390625.390625.390625,1.0234375,0,1.4140625-.1953125.1953125-.45117188.29296875-.70703125.29296875s-.51171875-.09765625-.70703125-.29296875l-1.29296875-1.29296875-1.29296875,1.29296875c-.390625.390625-1.0234375.390625-1.4140625,0Z" style="stroke-width:0px;"/><path d="m39,24c1.65429688,0,3-1.34570312,3-3h-6c0,1.65429688,1.34570312,3,3,3Z" style="stroke-width:0px;"/><path d="m12,6C5.38330078,6,0,11.3828125,0,18s5.38330078,12,12,12,12-5.3828125,12-12-5.38330078-12-12-12Zm-6.70703125,8.46484375c.390625-.390625,1.0234375-.390625,1.4140625,0,.71289062.71289062,1.87304688.71289062,2.5859375,0,.390625-.390625,1.0234375-.390625,1.4140625,0s.390625,1.0234375,0,1.4140625c-.74609375.74609375-1.7265625,1.11914062-2.70703125,1.11914062s-1.9609375-.37304688-2.70703125-1.11914062c-.390625-.390625-.390625-1.0234375,0-1.4140625Zm11.50732422,9.13476562c-.19677734.26269531-.49707031.40039062-.80126953.40039062-.20849609,0-.41894531-.06542969-.59912109-.20019531-2.00195312-1.5-4.79785156-1.5-6.79980469,0-.44287109.33105469-1.06787109.24316406-1.40039062-.20019531-.33105469-.44140625-.24169922-1.06835938.20019531-1.39941406,2.70898438-2.03125,6.49121094-2.03125,9.20019531,0,.44189453.33105469.53125.95800781.20019531,1.39941406Zm1.90673828-7.72070312c-.74609375.74609375-1.7265625,1.11914062-2.70703125,1.11914062s-1.9609375-.37304688-2.70703125-1.11914062c-.390625-.390625-.390625-1.0234375,0-1.4140625s1.0234375-.390625,1.4140625,0c.71289062.71289062,1.87304688.71289062,2.5859375,0,.390625-.390625,1.0234375-.390625,1.4140625,0s.390625,1.0234375,0,1.4140625Z" style="stroke-width:0px;"/><path d="m47,4c.55273438,0,1-.44726562,1-1V1c0-.55273438-.44726562-1-1-1s-1,.44726562-1,1v2c0,.55273438.44726562,1,1,1Z" style="stroke-width:0px;"/><path d="m52,7c-.55273438,0-1,.44726562-1,1s.44726562,1,1,1h2c.55273438,0,1-.44726562,1-1s-.44726562-1-1-1h-2Z" style="stroke-width:0px;"/><path d="m51,5c.25585938,0,.51171875-.09765625.70703125-.29296875l2-2c.390625-.390625.390625-1.0234375,0-1.4140625s-1.0234375-.390625-1.4140625,0l-2,2c-.390625.390625-.390625,1.0234375,0,1.4140625.1953125.1953125.45117188.29296875.70703125.29296875Z" style="stroke-width:0px;"/><path d="m60,39c-.34558105,0-.67889404.05340576-1,.13696289v5.86303711c0,.55273438-.44726562,1-1,1s-1-.44726562-1-1v-6.62695312c-.73571777-.83673096-1.80462646-1.37304688-3-1.37304688-.34558105,0-.67889404.05340576-1,.13696289v6.86303711c0,.55273438-.44726562,1-1,1s-1-.44726562-1-1v-7.62695312c-.73571777-.83673096-1.80462646-1.37304688-3-1.37304688-.72998047,0-1.40997314.20001221-2,.53997803v8.45001221c0,.54998779-.45001221,1-1,1s-1-.45001221-1-1v-14.98999023c0-1.10003662-.90002441-2-2-2s-2,.89996338-2,2v19c0,.54998779-.45001221,1-1,1s-1-.45001221-1-1v-4.57000732l-1.60998535.96002197c-2.09002686,1.2699585-3.39001465,3.56994629-3.39001465,6.00994873v5.11999512c0,2.5,1.34997559,4.83001709,3.52001953,6.08001709l3.97998047,2.27001953c.15997314.08996582.33001709.13000488.5.13000488h18c.33001709,0,.65002441-.17004395.83001709-.45001221l3.15997314-4.72998047c.66003418-.99005127,1.01000977-2.14001465,1.01000977-3.33001709v-12.48999023c0-2.21002197-1.78997803-4-4-4Z" style="stroke-width:0px;"/></g></svg>