<?xml version="1.0" encoding="UTF-8"?><svg id="Layer_1" xmlns="http://www.w3.org/2000/svg" viewBox="0 0 64 64"><g id="Video_Conference"><path d="m27,59h12c.55126953,0,1-.44824219,1-1v-2h-14v2c0,.55175781.44873047,1,1,1Z" style="stroke-width:0px;"/><path d="m63,56h-21v2c0,1.65429688-1.34570312,3-3,3h-12c-1.65429688,0-3-1.34570312-3-3v-2H3c-.55230713,0-1,.44769287-1,1v3c0,2.20910645,1.79083252,4,4,4h54c2.20916748,0,4-1.79089355,4-4v-3c0-.55230713-.44769287-1-1-1Z" style="stroke-width:0px;"/><path d="m27.99658203,42.03369141c-.65740967.14031982-1.32659912.21435547-1.99658203.21435547-.66986084,0-1.33905029-.07403564-1.99658203-.21429443.01849365,1.08666992.90509033,1.96624756,1.99658203,1.96624756s1.97808838-.87963867,1.99658203-1.96630859Z" style="stroke-width:0px;"/><path d="m23.03997803,39.64001465c1.88000488.80999756,4.04003906.80999756,5.92004395,0,1.84997559-.79003906,3.03997803-2.60003662,3.03997803-4.60003662v-4.07000732c-2.39001465-.13000488-4.54998779-1.26000977-6-3.10998535-1.45001221,1.84997559-3.60998535,2.97998047-6,3.10998535v4.07000732c0,.97998047.28997803,1.92999268.83001709,2.75.52996826.80999756,1.28997803,1.45001221,2.20996094,1.85003662Zm.07000732-4.09002686c.23999023-.48999023.84002686-.69000244,1.34002686-.44000244.9699707.47998047,2.13000488.47998047,3.09997559,0,.5-.25,1.10003662-.04998779,1.34002686.44000244.25.5.04998779,1.09997559-.44000244,1.34002686-.77001953.38995361-1.60998535.57995605-2.45001221.57995605s-1.67999268-.19000244-2.45001221-.57995605c-.48999023-.24005127-.69000244-.84002686-.44000244-1.34002686Z" style="stroke-width:0px;"/><path d="m13.39697266,46.72167969l-.21478271,1.27832031h11.81781006v-2.14202881c-1.72027588-.44714355-3-1.99926758-3-3.85797119v-.6494751c-.11889648-.05731201-.234375-.11950684-.3493042-.18273926l-4.90313721,1.64080811c-1.76708984.5859375-3.05029297,2.08496094-3.35058594,3.91308594Z" style="stroke-width:0px;"/><path d="m38.60351562,46.72558594c-.30078125-1.83203125-1.58398438-3.33105469-3.34814453-3.91601562l-4.9041748-1.64117432c-.11541748.06323242-.23144531.12536621-.35119629.18249512v.64910889c0,1.85870361-1.27972412,3.41082764-3,3.85797119v2.14202881h11.81768799l-.21417236-1.27441406Z" style="stroke-width:0px;"/><path d="m16,33c0,1.10253906.89697266,2,2,2v-4c-1.10302734,0-2,.89746094-2,2Z" style="stroke-width:0px;"/><path d="m34,35c1.10302734,0,2-.89746094,2-2s-.89697266-2-2-2v4Z" style="stroke-width:0px;"/><path d="m19,29h.52783203c2.37744141,0,4.51464844-1.32128906,5.57763672-3.44726562.16943359-.33886719.515625-.55273438.89453125-.55273438s.72509766.21386719.89453125.55273438c1.06298828,2.12597656,3.20019531,3.44726562,5.57763672,3.44726562h2.52783203v-1c0-4.96289062-4.03759766-9-9-9s-9,4.03710938-9,9v1h2Z" style="stroke-width:0px;"/><circle cx="46" cy="23" r="1" style="stroke-width:0px;"/><path d="m57,15v34c0,.54998779-.45001221,1-1,1H10c-.54998779,0-1-.45001221-1-1V16h-4v37c0,.54998779.45001221,1,1,1h54c.54998779,0,1-.45001221,1-1V14c0-3.30999756-2.69000244-6-6-6H22v4h32c1.65002441,0,3,1.34997559,3,3Z" style="stroke-width:0px;"/><path d="m17,16v2c0,.38000488-.21002197.7199707-.54998779.89001465-.14001465.06994629-.29998779.10998535-.45001221.10998535-.21002197,0-.41998291-.07000732-.59997559-.20001221l-3.7300415-2.79998779h-.66998291v32h.15002441l.2699585-1.60998535c.42004395-2.56005859,2.22003174-4.66003418,4.70001221-5.4800415l3.65002441-1.2199707c-.2300415-.25-.42999268-.52001953-.61999512-.79998779-.38000488-.59002686-.67004395-1.2300415-.86999512-1.89001465h-.2800293c-2.21002197,0-4-1.79003906-4-4,0-1.04003906.40997314-1.9800415,1.05999756-2.69000244-.02996826-.10003662-.05999756-.20001221-.05999756-.30999756v-2c0-6.07000732,4.92999268-11,11-11s11,4.92999268,11,11v2c0,.10998535-.0300293.20996094-.05999756.30999756.65002441.70996094,1.05999756,1.64996338,1.05999756,2.69000244,0,2.20996094-1.78997803,4-4,4h-.2800293c-.29998779,1-.79998779,1.91998291-1.48999023,2.69000244l3.66003418,1.2199707c2.4699707.82000732,4.2699585,2.91998291,4.69000244,5.48999023l.2699585,1.60003662h14.15002441V15c0-.54998779-.45001221-1-1-1H21.46002197c-.69000244,1.20001221-1.9800415,2-3.46002197,2h-1Zm22,1c0-.54998779.45001221-1,1-1h12c.54998779,0,1,.45001221,1,1v12c0,.54998779-.45001221,1-1,1h-12c-.54998779,0-1-.45001221-1-1v-12Z" style="stroke-width:0px;"/><path d="m46,26c-1.30194092,0-2.40161133.83850098-2.81573486,2h5.63146973c-.41412354-1.16149902-1.51379395-2-2.81573486-2Z" style="stroke-width:0px;"/><path d="m43.52001953,24.68469238c-.32757568-.48065186-.52001953-1.06036377-.52001953-1.68469238,0-1.65429688,1.34570312-3,3-3s3,1.34570312,3,3c0,.62432861-.19244385,1.20404053-.52001953,1.68469238,1.22076416.70465088,2.12878418,1.8918457,2.41894531,3.31530762h.10107422v-10h-10v10h.10107422c.29016113-1.42346191,1.19818115-2.61065674,2.41894531-3.31530762Z" style="stroke-width:0px;"/><path d="m12,14c.2199707,0,.42999268.07000732.59997559.20001221l2.40002441,1.79998779v-1c0-.54998779.45001221-1,1-1h2c1.09997559,0,2-.90002441,2-2V2c0-1.10003662-.90002441-2-2-2H2C.90002441,0,0,.89996338,0,2v10c0,1.09997559.90002441,2,2,2h10Zm3-8c.55230713,0,1,.44769287,1,1,0,.55224609-.44769287,1-1,1s-1-.44775391-1-1c0-.55230713.44769287-1,1-1Zm-5,0c.55230713,0,1,.44769287,1,1,0,.55224609-.44769287,1-1,1s-1-.44775391-1-1c0-.55230713.44769287-1,1-1Zm-5,0c.55230713,0,1,.44769287,1,1,0,.55224609-.44769287,1-1,1s-1-.44775391-1-1c0-.55230713.44769287-1,1-1Z" style="stroke-width:0px;"/></g></svg>