<?xml version="1.0" encoding="UTF-8"?><svg id="Layer_1" xmlns="http://www.w3.org/2000/svg" viewBox="0 0 64 64"><g id="Contract"><rect x="3" y="1" width="42" height="56" rx="4" ry="4" style="fill:#b9d8f9; stroke-width:0px;"/><path d="m45,5c0-.34735107-.05841064-.6784668-.14196777-1H13c-3.85986328,0-7,3.140625-7,7v45.85797119c.3215332.08355713.65270996.14202881,1,.14202881h34c2.20556641,0,4-1.79394531,4-4V5Z" style="fill:#9ac3ef; stroke-width:0px;"/><rect x="9" y="7" width="42" height="56" rx="4" ry="4" style="fill:#d9ecff; stroke-width:0px;"/><path d="m30,31c-4.71337891-1.18164062-8-5.39355469-8-10.24609375v-4.75390625l8-4,8,4v4.75390625c0,4.85449219-3.28955078,9.06835938-8,10.24609375h0Z" style="fill:#ffcd7d; stroke-width:0px;"/><polygon points="36.00048828 49 54 31 59 36 40.99951172 54.00097656 34.00097656 56 36.00048828 49" style="fill:#64c4ff; stroke-width:0px;"/><path d="m55,32l2.37890625-2.37890625c.40039062-.40039062.93310547-.62109375,1.5-.62109375,1.16943359,0,2.12109375.95117188,2.12109375,2.12109375,0,.55859375-.2265625,1.10546875-.62109375,1.5l-2.37890625,2.37890625-3-3Z" style="fill:#268edb; stroke-width:0px;"/><rect x="51.67157288" y="31.96446609" width="5.65685425" height="7.07106781" transform="translate(-9.13961031 48.93502884) rotate(-45)" style="fill:#45a9f4; stroke-width:0px;"/><polygon points="36.60449219 49.38574219 40.61328125 53.39648438 35.00097656 55 36.60449219 49.38574219" style="fill:#45a9f4; stroke-width:0px;"/><path d="m7,2h34c1.37158203,0,2.56445312.92382812,2.90087891,2.24609375.13623047.53613281.67675781.85839844,1.21582031.72265625.53515625-.13574219.85888672-.6796875.72265625-1.21484375-.56201172-2.20996094-2.55175781-3.75390625-4.83935547-3.75390625H7C4.24316406,0,2,2.24316406,2,5v48c0,2.28710938,1.54345703,4.27636719,3.75341797,4.83886719.08251953.02148438.16552734.03125.24707031.03125.44677734,0,.85351562-.30078125.96875-.75292969.13623047-.53515625-.1875-1.08007812-.72265625-1.21582031-1.32275391-.33691406-2.24658203-1.53027344-2.24658203-2.90136719V5c0-1.65429688,1.34570312-3,3-3Z" style="fill:#393e4c; stroke-width:0px;"/><path d="m51,47.24023438c-.55224609,0-1,.44726562-1,1v10.75976562c0,1.65429688-1.34570312,3-3,3H13c-1.65429688,0-3-1.34570312-3-3V11c0-1.65429688,1.34570312-3,3-3h34c1.65429688,0,3,1.34570312,3,3v18.75976562c0,.55273438.44775391,1,1,1s1-.44726562,1-1V11c0-2.75683594-2.24316406-5-5-5H13c-2.75683594,0-5,2.24316406-5,5v48c0,2.75683594,2.24316406,5,5,5h34c2.75683594,0,5-2.24316406,5-5v-10.75976562c0-.55273438-.44775391-1-1-1Z" style="fill:#393e4c; stroke-width:0px;"/><path d="m22,34c-.55224609,0-1,.44726562-1,1s.44775391,1,1,1h16c.55224609,0,1-.44726562,1-1s-.44775391-1-1-1h-16Z" style="fill:#393e4c; stroke-width:0px;"/><path d="m39,16c0-.37890625-.21386719-.72460938-.55273438-.89453125l-8-4c-.28125-.140625-.61328125-.140625-.89453125,0l-8,4c-.33886719.16992188-.55273438.515625-.55273438.89453125v4.75390625c0,5.31445312,3.60107422,9.92675781,8.75732422,11.21582031.07958984.02050781.16113281.03027344.24267578.03027344s.16308594-.00976562.24267578-.03027344c5.15625-1.2890625,8.75732422-5.90136719,8.75732422-11.21582031v-4.75390625Zm-2,4.75390625c0,4.31152344-2.86572266,8.06347656-7,9.21191406-4.13427734-1.1484375-7-4.90039062-7-9.21191406v-4.13574219l7-3.5,7,3.5v4.13574219Z" style="fill:#393e4c; stroke-width:0px;"/><path d="m27.70703125,21.29296875c-.390625-.390625-1.0234375-.390625-1.4140625,0s-.390625,1.0234375,0,1.4140625l2,2c.1953125.1953125.45117188.29296875.70703125.29296875s.51171875-.09765625.70703125-.29296875l4-4c.390625-.390625.390625-1.0234375,0-1.4140625s-1.0234375-.390625-1.4140625,0l-3.29296875,3.29296875-1.29296875-1.29296875Z" style="fill:#393e4c; stroke-width:0px;"/><path d="m59.4140625,35l1.671875-1.671875c.58105469-.58105469.9140625-1.38476562.9140625-2.20703125,0-1.72070312-1.39990234-3.12109375-3.12109375-3.12109375-.83398438,0-1.61767578.32421875-2.20703125.9140625l-1.671875,1.671875-.29296875-.29296875c-.390625-.390625-1.0234375-.390625-1.4140625,0l-8.70703125,8.70703125h-27.5859375c-.55224609,0-1,.44726562-1,1s.44775391,1,1,1h25.5859375l-3,3h-22.5859375c-.55224609,0-1,.44726562-1,1s.44775391,1,1,1h20.5859375l-2.29296875,2.29296875c-.00463867.00463867-.00585938.01092529-.01037598.015625-.11021177.11435242-.21631231.31934784-.24401855.41699219l-.07843018.27441406h-17.96014404c-.55224609,0-1,.44726562-1,1s.44775391,1,1,1h17.38873291l-1.35015869,4.72558594c-.10009766.34863281-.00244141.72460938.25439453.98144531.2503903.25103398.62148011.35565475.98193359.25488281l7-2c.10001599-.0286142.30653809-.13761716.41796875-.2454834.00421143-.00408936.01000977-.00524902.01416016-.00939941l17.25695801-17.25695801c.30957031.45391846.47790527.98858643.47790527,1.54992676,0,.73730469-.28710938,1.43066406-.80859375,1.95214844l-3.34033203,3.34082031c-.1875.1875-.29296875.44140625-.29296875.70703125v3c0,.55273438.44775391,1,1,1s1-.44726562,1-1v-2.5859375l3.04736328-3.04785156c1.85644531-1.85644531,1.85644531-4.87597656,0-6.73242188l-.63330078-.63378906Zm-4.4140625,3.5859375l-3.5859375-3.5859375,2.58587646-2.58587646,3.58581543,3.58605957-2.58575439,2.58575439Zm3.0859375-8.2578125c.21191406-.21191406.49316406-.328125.79296875-.328125.61816406,0,1.12109375.50292969,1.12109375,1.12109375,0,.29492188-.11962891.58398438-.328125.79296875l-1.671875,1.671875-1.5859375-1.5859375,1.671875-1.671875Zm-8.0859375,6.0859375l3.5859375,3.5859375-12.5859375,12.5859375-3.5859375-3.5859375,12.5859375-12.5859375Zm-14.54394531,18.12988281l1.03857422-3.63476562,2.59667969,2.59667969-3.63525391,1.03808594Z" style="fill:#393e4c; stroke-width:0px;"/><path d="m20.00097656,57c.19042969,0,.38330078-.0546875.55371094-.16796875l1.43603516-.95800781c.51074219-.33886719,1.19628906-.27246094,1.63085938.16210938.62158203.62207031,1.44824219.96386719,2.32763672.96386719h4.05078125c.55224609,0,1-.44726562,1-1s-.44775391-1-1-1h-4.05078125c-.34521484,0-.66992188-.13378906-.91308594-.37792969-1.10595703-1.10546875-2.85351562-1.27929688-4.15429688-.41210938l-1.43652344.95800781c-.45947266.30664062-.58349609.92773438-.27734375,1.38671875.19287109.2890625.50976562.4453125.83300781.4453125Z" style="fill:#393e4c; stroke-width:0px;"/></g></svg>