<?xml version="1.0" encoding="UTF-8"?><svg id="Layer_1" xmlns="http://www.w3.org/2000/svg" viewBox="0 0 64 64"><g id="Chatting"><path d="m53,51c-.55273438,0-1,.44726562-1,1v3c0,3.859375-3.140625,7-7,7h-26c-3.859375,0-7-3.140625-7-7v-23c0-.55273438-.44726562-1-1-1s-1,.44726562-1,1v23c0,4.96289062,4.03710938,9,9,9h26c4.96289062,0,9-4.03710938,9-9v-3c0-.55273438-.44726562-1-1-1Z" style="stroke-width:0px;"/><path d="m14.56347656,3.58300781c1.24707031-1.02050781,2.82226562-1.58300781,4.43652344-1.58300781h26c3.859375,0,7,3.140625,7,7v9.04980469c0,.55273438.44726562,1,1,1s1-.44726562,1-1v-9.04980469c0-4.96289062-4.03710938-9-9-9h-26c-2.07519531,0-4.10058594.72265625-5.70410156,2.03613281-.42675781.34960938-.49023438.97949219-.13964844,1.40722656.34863281.42578125.9765625.49023438,1.40722656.13964844Z" style="stroke-width:0px;"/><path d="m16,31c-.55273438,0-1,.44726562-1,1v22c0,2.75683594,2.24316406,5,5,5h24c2.75683594,0,5-2.24316406,5-5v-2c0-.55273438-.44726562-1-1-1s-1,.44726562-1,1v2c0,1.65429688-1.34570312,3-3,3h-24c-1.65429688,0-3-1.34570312-3-3v-22c0-.55273438-.44726562-1-1-1Z" style="stroke-width:0px;"/><path d="m48,21.00976562c.55273438,0,1-.44726562,1-1v-7.00976562c0-2.75683594-2.24316406-5-5-5h-24c-.1953125,0-.38964844.01269531-.58496094.0390625-.54785156.07519531-.93066406.57910156-.85644531,1.12597656.07421875.54785156.57324219.92382812,1.12597656.85644531.10546875-.01464844.20996094-.02148438.31542969-.02148438h24c1.65429688,0,3,1.34570312,3,3v7.00976562c0,.55273438.44726562,1,1,1Z" style="stroke-width:0px;"/><path d="m38,6c.55273438,0,1-.44726562,1-1s-.44726562-1-1-1h-8c-.55273438,0-1,.44726562-1,1s.44726562,1,1,1h8Z" style="stroke-width:0px;"/><circle cx="26" cy="5" r="1" style="stroke-width:0px;"/><path d="m57,36.54003906c-.55273438,0-1,.44726562-1,1v9.45996094c0,.55175781-.44824219,1-1,1h-14c-.33398438,0-.64648438.16699219-.83203125.4453125l-1.16796875,1.75195312-1.16796875-1.75195312c-.18554688-.27832031-.49804688-.4453125-.83203125-.4453125h-2c-.55175781,0-1-.44824219-1-1v-12c0-.55175781.44824219-1,1-1h10.33984375c.55273438,0,1-.44726562,1-1s-.44726562-1-1-1h-10.33984375c-1.65429688,0-3,1.34570312-3,3v12c0,1.65429688,1.34570312,3,3,3h1.46484375l1.703125,2.5546875c.18554688.27832031.49804688.4453125.83203125.4453125s.64648438-.16699219.83203125-.4453125l1.703125-2.5546875h13.46484375c1.65429688,0,3-1.34570312,3-3v-9.45996094c0-.55273438-.44726562-1-1-1Z" style="stroke-width:0px;"/><path d="m62,28c0-4.41113281-3.58886719-8-8-8s-8,3.58886719-8,8c0,4.41292517,3.62220242,8,8,8s8-3.58707483,8-8Zm-8-6c3.30859375,0,6,2.69140625,6,6,0,1.31103516-.42749023,2.5213623-1.14361572,3.50952148-.40081787-.55932617-.89019775-1.04681396-1.45202637-1.43701172.3704834-.60632324.59564209-1.31121826.59564209-2.07250977,0-2.20605469-1.79394531-4-4-4s-4,1.79394531-4,4c0,.7612915.22515869,1.46618652.59564209,2.0725708-.56176758.39019775-1.05126953.87762451-1.45202637,1.43695068-.71612549-.98815918-1.14361572-2.19848633-1.14361572-3.50952148,0-3.30859375,2.69140625-6,6-6Zm-2,6c0-1.10253906.89746094-2,2-2s2,.89746094,2,2-.89746094,2-2,2-2-.89746094-2-2Zm-1.40136719,4.93731689c.36865234-.61010742.89276123-1.0982666,1.51159668-1.43359375.56536865.30633545,1.20263672.49627686,1.88977051.49627686s1.32440186-.18994141,1.88977051-.49627686c.61883545.33532715,1.14294434.82348633,1.51159668,1.43359375-.96759033.66864014-2.13873291,1.06268311-3.40136719,1.06268311s-2.43377686-.39404297-3.40136719-1.06268311Z" style="stroke-width:0px;"/><path d="m24.16796875,32.5546875c.18554688.27832031.49804688.4453125.83203125.4453125s.64648438-.16699219.83203125-.4453125l1.703125-2.5546875h1.46484375c1.65429688,0,3-1.34570312,3-3v-8c0-1.65429688-1.34570312-3-3-3h-10.33984375c-.55273438,0-1,.44726562-1,1s.44726562,1,1,1h10.33984375c.55175781,0,1,.44824219,1,1v8c0,.55175781-.44824219,1-1,1h-2c-.33398438,0-.64648438.16699219-.83203125.4453125l-1.16796875,1.75195312-1.16796875-1.75195312c-.18554688-.27832031-.49804688-.4453125-.83203125-.4453125h-14c-.55175781,0-1-.44824219-1-1v-5.45996094c0-.55273438-.44726562-1-1-1s-1,.44726562-1,1v5.45996094c0,1.65429688,1.34570312,3,3,3h13.46484375l1.703125,2.5546875Z" style="stroke-width:0px;"/><path d="m10,20c4.37779758,0,8-3.58707483,8-8,0-4.41113281-3.58886719-8-8-8S2,7.58886719,2,12c0,4.41292517,3.62220242,8,8,8Zm-3.40136719-3.06268311c.36865234-.61010742.89276123-1.0982666,1.51159668-1.43359375.56536865.30633545,1.20263672.49627686,1.88977051.49627686s1.32440186-.18994141,1.88977051-.49627686c.61883545.33532715,1.14294434.82348633,1.51159668,1.43359375-.96759033.66864014-2.13873291,1.06268311-3.40136719,1.06268311s-2.43377686-.39404297-3.40136719-1.06268311Zm3.40136719-2.93731689c-1.10253906,0-2-.89746094-2-2s.89746094-2,2-2,2,.89746094,2,2-.89746094,2-2,2Zm0-8c3.30859375,0,6,2.69140625,6,6,0,1.31103516-.42749023,2.5213623-1.14361572,3.50952148-.40081787-.55932617-.89019775-1.04681396-1.45202637-1.43701172.3704834-.60632324.59564209-1.31121826.59564209-2.07250977,0-2.20605469-1.79394531-4-4-4s-4,1.79394531-4,4c0,.7612915.22515869,1.46618652.59564209,2.0725708-.56176758.39019775-1.05126953.87762451-1.45202637,1.43695068-.71612549-.98815918-1.14361572-2.19848633-1.14361572-3.50952148,0-3.30859375,2.69140625-6,6-6Z" style="stroke-width:0px;"/><circle cx="39" cy="41" r="1" style="stroke-width:0px;"/><circle cx="45" cy="41" r="1" style="stroke-width:0px;"/><circle cx="51" cy="41" r="1" style="stroke-width:0px;"/><circle cx="25" cy="23" r="1" style="stroke-width:0px;"/><circle cx="19" cy="23" r="1" style="stroke-width:0px;"/><circle cx="13" cy="23" r="1" style="stroke-width:0px;"/></g></svg>