<?xml version="1.0" encoding="UTF-8"?><svg id="Layer_1" xmlns="http://www.w3.org/2000/svg" viewBox="0 0 64 64"><g id="Video_Conference"><path d="m63,52h-2V14c0-3.30859375-2.69140625-6-6-6h-31c-.55224609,0-1,.44726562-1,1s.44775391,1,1,1h31c2.20556641,0,4,1.79394531,4,4v38H7V18c0-.55273438-.44775391-1-1-1s-1,.44726562-1,1v34h-2c-.55224609,0-1,.44726562-1,1v6c0,2.75683594,2.24316406,5,5,5h52c2.75683594,0,5-2.24316406,5-5v-6c0-.55273438-.44775391-1-1-1Zm-23,2v2c0,.55175781-.44873047,1-1,1h-12c-.55126953,0-1-.44824219-1-1v-2h14Zm22,5c0,1.65429688-1.34570312,3-3,3H7c-1.65429688,0-3-1.34570312-3-3v-5h20v2c0,1.65429688,1.34570312,3,3,3h12c1.65429688,0,3-1.34570312,3-3v-2h20v5Z" style="stroke-width:0px;"/><path d="m10,17c-.55224609,0-1,.44726562-1,1v31c0,.55273438.44775391,1,1,1h46c.55224609,0,1-.44726562,1-1V15c0-1.65429688-1.34570312-3-3-3h-30.08984375c-.55224609,0-1,.44726562-1,1s.44775391,1,1,1h30.08984375c.55126953,0,1,.44824219,1,1v33h-14.15386963l-.26947021-1.60253906c-.42138672-2.56445312-2.21972656-4.66699219-4.68945312-5.48535156l-3.652771-1.22241211c.68536377-.77191162,1.19024658-1.690979,1.48132324-2.68969727h.28424072c2.20556641,0,4-1.79394531,4-4,0-1.04046631-.40881348-1.98077393-1.06201172-2.69293213.03216553-.09814453.06201172-.19812012.06201172-.30706787v-2c0-6.06542969-4.93457031-11-11-11s-11,4.93457031-11,11v2c0,.10894775.02984619.20892334.06201172.30706787-.65319824.7121582-1.06201172,1.65246582-1.06201172,2.69293213,0,2.20605469,1.79443359,4,4,4h.28381348c.19421387.66369629.48425293,1.30010986.8704834,1.88867188.1852417.28240967.39068604.54937744.61358643.80029297l-3.65216064,1.22216797c-2.47265625.81933594-4.27099609,2.921875-4.69189453,5.48242188l-.27001953,1.60644531h-.15380859v-30c0-.55273438-.44775391-1-1-1Zm10,13.97320557c2.38562012-.13464355,4.55438232-1.26586914,6-3.11090088,1.44561768,1.84503174,3.61437988,2.97625732,6,3.11090088v4.0668335c0,2.00292969-1.19140625,3.80859375-3.03564453,4.60058594-1.88330078.8125-4.04443359.81152344-5.92480469.00195312-.91455078-.3984375-1.68017578-1.0390625-2.21337891-1.8515625-.54052734-.82324219-.82617188-1.77441406-.82617188-2.75097656v-4.0668335Zm6,11.27484131c.66998291,0,1.33917236-.07403564,1.99658203-.21435547-.01849365,1.08666992-.90509033,1.96630859-1.99658203,1.96630859s-1.97808838-.87957764-1.99658203-1.96624756c.65753174.14025879,1.32672119.21429443,1.99658203.21429443Zm12.60351562,4.47753906l.21435547,1.27441406h-11.81787109v-2.14202881c1.72027588-.44714355,3-1.99926758,3-3.85797119v-.64910889c.11975098-.05712891.23577881-.1192627.35119629-.18249512l4.9041748,1.64117432c1.76416016.58496094,3.04736328,2.08398438,3.34814453,3.91601562Zm-4.60351562-11.72558594v-4c1.10302734,0,2,.89746094,2,2s-.89697266,2-2,2Zm-17-7c0-4.96289062,4.03759766-9,9-9s9,4.03710938,9,9v1h-2.52783203c-2.37744141,0-4.51464844-1.32128906-5.57763672-3.44726562-.16943359-.33886719-.515625-.55273438-.89453125-.55273438s-.72509766.21386719-.89453125.55273438c-1.06298828,2.12597656-3.20019531,3.44726562-5.57763672,3.44726562h-2.52783203v-1Zm-1,5c0-1.10253906.89697266-2,2-2v4c-1.10302734,0-2-.89746094-2-2Zm-2.60302734,13.72167969c.30029297-1.828125,1.58349609-3.32714844,3.35058594-3.91308594l4.90313721-1.64080811c.1149292.06323242.23040771.12542725.3493042.18273926v.6494751c0,1.85870361,1.27972412,3.41082764,3,3.85797119v2.14202881h-11.81787109l.21484375-1.27832031Z" style="stroke-width:0px;"/><path d="m23.55273438,36.89453125c.76611328.3828125,1.60644531.57519531,2.44726562.57519531s1.68115234-.19238281,2.44726562-.57519531c.49414062-.24707031.69433594-.84765625.44726562-1.34179688-.24755859-.49511719-.84814453-.69335938-1.34179688-.44726562-.97265625.48632812-2.1328125.48632812-3.10546875,0-.49316406-.24511719-1.09472656-.04785156-1.34179688.44726562-.24707031.49414062-.046875,1.09472656.44726562,1.34179688Z" style="stroke-width:0px;"/><path d="m52,30c.55224609,0,1-.44726562,1-1v-12c0-.55273438-.44775391-1-1-1h-12c-.55224609,0-1,.44726562-1,1v12c0,.55273438.44775391,1,1,1h12Zm-7-7c0-.55175781.44873047-1,1-1s1,.44824219,1,1-.44873047,1-1,1-1-.44824219-1-1Zm1,3c1.30194092,0,2.40161133.83850098,2.81573486,2h-5.63146973c.41412354-1.16149902,1.51379395-2,2.81573486-2Zm-5-8h10v10h-.10107422c-.29016113-1.42346191-1.19818115-2.61065674-2.41894531-3.31530762.32757568-.48065186.52001953-1.06036377.52001953-1.68469238,0-1.65429688-1.34570312-3-3-3s-3,1.34570312-3,3c0,.62432861.19244385,1.20404053.52001953,1.68469238-1.22076416.70465088-2.12878418,1.8918457-2.41894531,3.31530762h-.10107422v-10Z" style="stroke-width:0px;"/><path d="m11.66650391,16l3.73339844,2.79980469c.17675781.1328125.38769531.20019531.60009766.20019531.15234375,0,.30566406-.03515625.44726562-.10546875.33886719-.16992188.55273438-.515625.55273438-.89453125v-2h1c2.20556641,0,4-1.79394531,4-4V4c0-2.20605469-1.79443359-4-4-4H4C1.79443359,0,0,1.79394531,0,4v8c0,2.20605469,1.79443359,4,4,4h7.66650391ZM2,12V4c0-1.10253906.89697266-2,2-2h14c1.10302734,0,2,.89746094,2,2v8c0,1.10253906-.89697266,2-2,2h-2c-.55224609,0-1,.44726562-1,1v1l-2.39990234-1.79980469c-.17333984-.12988281-.38378906-.20019531-.60009766-.20019531H4c-1.10302734,0-2-.89746094-2-2Z" style="stroke-width:0px;"/><circle cx="11" cy="8" r="1" style="stroke-width:0px;"/><circle cx="6" cy="8" r="1" style="stroke-width:0px;"/><circle cx="16" cy="8" r="1" style="stroke-width:0px;"/></g></svg>