<?xml version="1.0" encoding="UTF-8"?><svg id="Layer_1" xmlns="http://www.w3.org/2000/svg" viewBox="0 0 64 64"><g id="Send_Message"><path d="m38.04003906,44H14c-1.65429688,0-3-1.34570312-3-3v-1.50018311l14.72821045-11.0480957,6.72540283,4.38616943c.16601562.10839844.35644531.16210938.54638672.16210938.19042969,0,.37988281-.05371094.54589844-.16210938l6.72509766-4.38592529,5.00830078,3.75799561c.18066406.13476562.390625.20019531.59960938.20019531.30371094,0,.60449219-.13769531.80078125-.39941406.33105469-.44238281.2421875-1.06933594-.19921875-1.40039062l-4.42633057-3.32128906,12.94586182-8.44299316v11.73400879c0,.55273438.44726562,1,1,1s1-.44726562,1-1V13c0-2.75683594-2.24316406-5-5-5H14c-2.75683594,0-5,2.24316406-5,5v12H3c-.55224609,0-1,.44726562-1,1s.44775391,1,1,1h10c.55224609,0,1-.44726562,1-1s-.44775391-1-1-1h-2v-6.15362549l12.94549561,8.44274902-12.94549561,9.71081543v-6.99993896c0-.55273438-.44775391-1-1-1s-1,.44726562-1,1v11c0,2.75683594,2.24316406,5,5,5h24.04003906c.55273438,0,1-.44726562,1-1s-.44726562-1-1-1ZM11,13c0-1.65429688,1.34570312-3,3-3h38c1.65429688,0,3,1.34570312,3,3v3.45825195l-15.19061279,9.90661621c-.00280762.00158691-.00518799.00354004-.00793457.00518799l-6.80145264,4.43560791-6.80517578-4.43811035c-.00079346-.00042725-.00152588-.0010376-.00231934-.00152588l-15.19250488-9.90808105v-3.45794678Z" style="stroke-width:0px;"/><path d="m52,32c-6.6171875,0-12,5.3828125-12,12s5.3828125,12,12,12,12-5.3828125,12-12-5.3828125-12-12-12Zm0,22c-5.51367188,0-10-4.48632812-10-10s4.48632812-10,10-10,10,4.48632812,10,10-4.48632812,10-10,10Z" style="stroke-width:0px;"/><path d="m59.47851562,43.12207031l-11-6c-.35839844-.19726562-.8046875-.15332031-1.12011719.11132812-.31542969.26367188-.4375.69335938-.30664062,1.08300781l1.89453125,5.68359375-1.89453125,5.68359375c-.13085938.38964844-.00878906.81933594.30664062,1.08300781.18359375.15429688.41210938.23339844.64160156.23339844.1640625,0,.32910156-.04003906.47851562-.12207031l11-6c.32128906-.17480469.52148438-.51171875.52148438-.87792969s-.20019531-.703125-.52148438-.87792969Zm-9.7265625,4.78320312l.96844482-2.90527344h1.27960205c.55273438,0,1-.44726562,1-1s-.44726562-1-1-1h-1.27960205l-.96844482-2.90527344,7.16015625,3.90527344-7.16015625,3.90527344Z" style="stroke-width:0px;"/><path d="m5,33H1c-.55224609,0-1,.44726562-1,1s.44775391,1,1,1h4c.55224609,0,1-.44726562,1-1s-.44775391-1-1-1Z" style="stroke-width:0px;"/><path d="m6,29H2c-.55224609,0-1,.44726562-1,1s.44775391,1,1,1h4c.55224609,0,1-.44726562,1-1s-.44775391-1-1-1Z" style="stroke-width:0px;"/></g></svg>