<?xml version="1.0" encoding="UTF-8"?><svg id="Layer_1" xmlns="http://www.w3.org/2000/svg" viewBox="0 0 64 64"><g id="Feedback"><path d="m36.02050781,29.58984375c.43652344,0,.83789062-.28808594.96191406-.72949219.14941406-.53222656-.16113281-1.08398438-.69238281-1.23339844-4.29248047-1.20507812-7.29003906-5.1640625-7.29003906-9.62695312,0-5.51367188,4.48632812-10,10-10s10,4.48632812,10,10c0,2.60058594-.98730469,5.05664062-2.77929688,6.91601562-.38378906.3984375-.37207031,1.03125.02539062,1.4140625.39746094.38378906,1.03125.37304688,1.4140625-.02539062,2.15429688-2.234375,3.33984375-5.18359375,3.33984375-8.3046875,0-6.6171875-5.3828125-12-12-12-6.61669922,0-12,5.3828125-12,12,0,5.35546875,3.59765625,10.10644531,8.74902344,11.55273438.09082031.02539062.18164062.03710938.27148438.03710938Z" style="stroke-width:0px;"/><path d="m12,6C5.38330078,6,0,11.3828125,0,18s5.38330078,12,12,12,12-5.3828125,12-12-5.38330078-12-12-12Zm0,22c-5.51416016,0-10-4.48632812-10-10s4.48583984-10,10-10,10,4.48632812,10,10-4.48583984,10-10,10Z" style="stroke-width:0px;"/><path d="m34.29296875,13.29296875l-2,2c-.390625.390625-.390625,1.0234375,0,1.4140625s1.0234375.390625,1.4140625,0l1.29296875-1.29296875,1.29296875,1.29296875c.1953125.1953125.45117188.29296875.70703125.29296875s.51171875-.09765625.70703125-.29296875c.390625-.390625.390625-1.0234375,0-1.4140625l-2-2c-.390625-.390625-1.0234375-.390625-1.4140625,0Z" style="stroke-width:0px;"/><path d="m43.70703125,13.29296875c-.390625-.390625-1.0234375-.390625-1.4140625,0l-2,2c-.390625.390625-.390625,1.0234375,0,1.4140625s1.0234375.390625,1.4140625,0l1.29296875-1.29296875,1.29296875,1.29296875c.1953125.1953125.45117188.29296875.70703125.29296875s.51171875-.09765625.70703125-.29296875c.390625-.390625.390625-1.0234375,0-1.4140625l-2-2Z" style="stroke-width:0px;"/><path d="m17.29296875,14.46484375c-.71289062.71289062-1.87304688.71289062-2.5859375,0-.390625-.390625-1.0234375-.390625-1.4140625,0s-.390625,1.0234375,0,1.4140625c.74609375.74609375,1.7265625,1.11914062,2.70703125,1.11914062s1.9609375-.37304688,2.70703125-1.11914062c.390625-.390625.390625-1.0234375,0-1.4140625s-1.0234375-.390625-1.4140625,0Z" style="stroke-width:0px;"/><path d="m10.70703125,15.87890625c.390625-.390625.390625-1.0234375,0-1.4140625s-1.0234375-.390625-1.4140625,0c-.71289062.71289062-1.87304688.71289062-2.5859375,0-.390625-.390625-1.0234375-.390625-1.4140625,0s-.390625,1.0234375,0,1.4140625c.74609375.74609375,1.7265625,1.11914062,2.70703125,1.11914062s1.9609375-.37304688,2.70703125-1.11914062Z" style="stroke-width:0px;"/><path d="m7.39990234,22.20019531c-.44189453.33105469-.53125.95800781-.20019531,1.39941406.33251953.44335938.95751953.53125,1.40039062.20019531,2.00195312-1.5,4.79785156-1.5,6.79980469,0,.18017578.13476562.390625.20019531.59912109.20019531.30419922,0,.60449219-.13769531.80126953-.40039062.33105469-.44140625.24169922-1.06835938-.20019531-1.39941406-2.70898438-2.03125-6.49121094-2.03125-9.20019531,0Z" style="stroke-width:0px;"/><path d="m47,4c.55273438,0,1-.44726562,1-1V1c0-.55273438-.44726562-1-1-1s-1,.44726562-1,1v2c0,.55273438.44726562,1,1,1Z" style="stroke-width:0px;"/><path d="m52,7c-.55273438,0-1,.44726562-1,1s.44726562,1,1,1h2c.55273438,0,1-.44726562,1-1s-.44726562-1-1-1h-2Z" style="stroke-width:0px;"/><path d="m51,5c.25585938,0,.51171875-.09765625.70703125-.29296875l2-2c.390625-.390625.390625-1.0234375,0-1.4140625s-1.0234375-.390625-1.4140625,0l-2,2c-.390625.390625-.390625,1.0234375,0,1.4140625.1953125.1953125.45117188.29296875.70703125.29296875Z" style="stroke-width:0px;"/><path d="m60,39c-.8291626,0-1.59985352.25384521-2.23919678.68731689-.54632568-1.55932617-2.01696777-2.68731689-3.76080322-2.68731689-.8291626,0-1.59985352.25384521-2.23919678.68731689-.54632568-1.55932617-2.01696777-2.68731689-3.76080322-2.68731689-.73187256,0-1.40930176.21179199-2,.55621338v-6.55621338c0-2.20605469-1.79394531-4-4-4-.01208496,0-.02325439.00341797-.03527832.00354004,1.2277832-.9119873,2.03527832-2.36022949,2.03527832-4.00354004v-1c0-.55273438-.44726562-1-1-1h-8c-.55273438,0-1,.44726562-1,1v1c0,2.75683594,2.24316406,5,5,5,.14904785,0,.28948975-.03118896.43530273-.04400635-.87011719.73425293-1.43530273,1.81872559-1.43530273,3.04400635v14.43371582l-1.6015625.96081543c-2.09667969,1.2578125-3.3984375,3.55859375-3.3984375,6.00292969v5.12011719c0,2.50585938,1.3515625,4.83496094,3.52734375,6.078125l3.9765625,2.27246094c.15136719.0859375.32226562.13183594.49609375.13183594h18c.33398438,0,.64648438-.16699219.83203125-.4453125l3.16015625-4.74023438c.65917969-.98828125,1.0078125-2.13964844,1.0078125-3.328125v-12.48632812c0-2.20605469-1.79394531-4-4-4Zm-24-18h6c0,1.65429688-1.34570312,3-3,3s-3-1.34570312-3-3Zm26,34.48632812c0,.79296875-.23242188,1.55957031-.671875,2.21875l-2.86328125,4.29492188h-17.19921875l-3.74609375-2.140625c-1.55371094-.88769531-2.51953125-2.55175781-2.51953125-4.34179688v-5.12011719c0-1.74609375.93066406-3.38964844,2.42773438-4.28808594l.57226562-.34332275v2.23394775c0,.55273438.44726562,1,1,1s1-.44726562,1-1v-19c0-1.10253906.89746094-2,2-2s2,.89746094,2,2v14.99023438c0,.55273438.44726562,1,1,1s1-.44726562,1-1v-4.99023438c0-1.10253906.89746094-2,2-2s2,.89746094,2,2v5c0,.55273438.44726562,1,1,1s1-.44726562,1-1v-3c0-1.10253906.89746094-2,2-2s2,.89746094,2,2v4c0,.55273438.44726562,1,1,1s1-.44726562,1-1v-2c0-1.10253906.89746094-2,2-2s2,.89746094,2,2v12.48632812Z" style="stroke-width:0px;"/></g></svg>